<?xml version="1.0" encoding="utf-8"?>
<!-- Generator: Adobe Illustrator 19.0.0, SVG Export Plug-In . SVG Version: 6.00 Build 0)  -->
<svg version="1.1" baseProfile="basic" xmlns:x="&ns_extend;" xmlns:i="&ns_ai;" xmlns:graph="&ns_graphs;"
	 xmlns="http://www.w3.org/2000/svg" xmlns:xlink="http://www.w3.org/1999/xlink" x="0px" y="0px" width="1920px" height="1080px"
	 viewBox="0 0 1920 1080" xml:space="preserve">
<metadata>
	<sfw  xmlns="&ns_sfw;">
		<slices></slices>
		<sliceSourceBounds  width="385.5" height="448.8" x="-85.4" y="-606.3" bottomLeftOrigin="true"></sliceSourceBounds>
	</sfw>
</metadata>
<g id="Capa_12">
</g>
<g id="Capa_11">
</g>
<g id="Capa_3">
</g>
<g id="Capa_4">
	<g id="XMLID_195_">
		
			<path id="XMLID_694_" fill="none" stroke="#000000" stroke-width="4.5354" stroke-linecap="round" stroke-linejoin="round" stroke-miterlimit="10" d="
			M475.7,479.8c-0.5-1.7-3.1-1.7-4.3-0.4c-1.1,1.3-1.2,3.2-1.2,5c0,4.5,0.1,9,0.1,13.6c0,3.1,0,6.3,0.5,9.4c0.2,1.4,0.6,3,1.8,3.9
			c1.1,0.9,3.2,0.7,3.7-0.6"/>
		
			<line id="XMLID_690_" fill="none" stroke="#000000" stroke-width="4.5354" stroke-linecap="round" stroke-linejoin="round" stroke-miterlimit="10" x1="562.9" y1="505.1" x2="566.3" y2="504.6"/>
		
			<path id="XMLID_689_" fill="none" stroke="#000000" stroke-width="4.5354" stroke-linecap="round" stroke-linejoin="round" stroke-miterlimit="10" d="
			M535.4,507.6c-0.4,0.6-0.2,1.5,0.2,2.1c0.4,0.6,1.1,1,1.8,1.4c1.8,1,3.6,2,5.5,2.6c2,0.6,4.1,0.6,6-0.1c-0.2-0.2-0.4-0.3-0.6-0.5"
			/>
		
			<path id="XMLID_688_" fill="none" stroke="#000000" stroke-width="4.5354" stroke-linecap="round" stroke-linejoin="round" stroke-miterlimit="10" d="
			M495,495.5c-0.3,0.7-0.1,1.4,0.3,2c0.4,0.6,0.9,1.1,1.5,1.5c1.8,1.4,3.9,2.6,6.1,3.4c1.3,0.5,2.9,0.8,3.9-0.1"/>
		
			<path id="XMLID_687_" fill="none" stroke="#000000" stroke-width="4.5354" stroke-linecap="round" stroke-linejoin="round" stroke-miterlimit="10" d="
			M510.8,483c-2.1-1.5-4.7-2.2-7.2-2.1"/>
		
			<path id="XMLID_686_" fill="none" stroke="#000000" stroke-width="4.5354" stroke-linecap="round" stroke-linejoin="round" stroke-miterlimit="10" d="
			M548.9,491.1c1.1,0.2,2.1,0.7,2.9,1.4"/>
		
			<path id="XMLID_685_" fill="none" stroke="#000000" stroke-width="4.5354" stroke-linecap="round" stroke-linejoin="round" stroke-miterlimit="10" d="
			M509.7,523.6c1.4,1.5,3.1,2.9,4.9,4c1.7,1,3.6,1.8,5.6,2c2,0.2,4.1-0.4,5.5-1.8c1.4-1.4,1.9-3.8,0.9-5.5"/>
		
			<path id="XMLID_684_" fill="none" stroke="#000000" stroke-width="4.5354" stroke-linecap="round" stroke-linejoin="round" stroke-miterlimit="10" d="
			M495.2,527.1c3.1,6.1,8.9,10.7,15.6,12.4c6.6,1.7,14,0.4,19.6-3.5"/>
		
			<path id="XMLID_683_" fill="none" stroke="#000000" stroke-width="4.5354" stroke-linecap="round" stroke-linejoin="round" stroke-miterlimit="10" d="
			M490.8,527.4c2.1-0.6,4-1.8,5.5-3.4"/>
		
			<path id="XMLID_682_" fill="none" stroke="#000000" stroke-width="4.5354" stroke-linecap="round" stroke-linejoin="round" stroke-miterlimit="10" d="
			M504.7,545.2c0.9,0.7,2,1.1,3.2,1.1"/>
		
			<path id="XMLID_681_" fill="none" stroke="#000000" stroke-width="4.5354" stroke-linecap="round" stroke-linejoin="round" stroke-miterlimit="10" d="
			M477.4,507.7c-2.6,6.4-2.1,13.5-1.1,20.3c1.1,6.8,2.8,13.5,2.6,20.4s-2.6,14.1-8.1,18.2"/>
		
			<path id="XMLID_680_" fill="none" stroke="#000000" stroke-width="4.5354" stroke-linecap="round" stroke-linejoin="round" stroke-miterlimit="10" d="
			M501.3,564.9c7.6,3,16.4,2.1,23.7-1.5c7.3-3.6,13.2-9.7,17.7-16.5c4.5-6.8,15.5-34,18.4-41.6"/>
		
			<path id="XMLID_679_" fill="none" stroke="#000000" stroke-width="4.5354" stroke-linecap="round" stroke-linejoin="round" stroke-miterlimit="10" d="
			M479.7,480.8c-1.2-2.1-2.4-4.2-3.6-6.3c0.8-0.1,1.5-0.2,2.3-0.3c-0.7-1-1.5-2.1-2.2-3.1c0.9,0.1,1.8-0.1,2.6-0.6"/>
		
			<path id="XMLID_678_" fill="none" stroke="#000000" stroke-width="4.5354" stroke-linecap="round" stroke-linejoin="round" stroke-miterlimit="10" d="
			M483.8,480.4c3.6-4.7,5.9-10.3,8-15.8c0.6-1.5,1.1-3,2-4.3c0.9-1.3,2.2-2.4,3.8-2.8"/>
		
			<path id="XMLID_677_" fill="none" stroke="#000000" stroke-width="4.5354" stroke-linecap="round" stroke-linejoin="round" stroke-miterlimit="10" d="
			M558.6,452.8c0.7,3.8-1.6,7.8-4.9,9.8c-3.3,2-7.5,2.2-11.3,1.5c-3.8-0.7-7.4-2.2-11-3.7c-7.1-2.8-14.6-5.2-22.2-5.8
			c-7.7-0.6-15.7,0.8-22.1,5c1-4.5,3.6-8.6,7-11.8c3.3-3.2,7.4-5.7,11.5-7.7c7.8-3.9,16.4-6.6,25.2-6.5c8.8,0.1,17.7,3.2,23.7,9.5
			c3,3.1,5.3,7.5,4.1,11.7"/>
		
			<path id="XMLID_676_" fill="none" stroke="#000000" stroke-width="4.5354" stroke-linecap="round" stroke-linejoin="round" stroke-miterlimit="10" d="
			M556.8,462.8c3.3,3.1,5.1,7.4,6,11.7s0.9,8.9,0.9,13.4c0,1.2,0,2.4-0.5,3.5c-0.5,1.3-1.5,2.2-2.2,3.4c-0.7,1.2-1.1,2.8-0.2,3.8"/>
		
			<path id="XMLID_675_" fill="none" stroke="#000000" stroke-width="4.5354" stroke-linecap="round" stroke-linejoin="round" stroke-miterlimit="10" d="
			M565.3,502.9c4.6-5.9,7.4-13.3,7.8-20.8c0.4-7.5-1.5-15.2-5.4-21.6c-1.6-2.7-3.8-5.3-6.8-6.3"/>
		
			<path id="XMLID_674_" fill="none" stroke="#000000" stroke-width="4.5354" stroke-linecap="round" stroke-linejoin="round" stroke-miterlimit="10" d="
			M475.8,469.7c4.2-6,8.4-12.1,12.6-18.1"/>
		
			<path id="XMLID_673_" fill="none" stroke="#000000" stroke-width="4.5354" stroke-linecap="round" stroke-linejoin="round" stroke-miterlimit="10" d="
			M475.5,545.3c-5.2,0.9-8.8,6.3-9.1,11.5c-0.3,4.5,1.2,9,3.5,12.9c2.3,3.9,5.4,7.3,8.5,10.5c6.3,6.6,13.1,13.1,21.6,16.5
			c-0.7-0.7-1.5-1.4-2.2-2.1"/>
		
			<path id="XMLID_672_" fill="none" stroke="#000000" stroke-width="4.5354" stroke-linecap="round" stroke-linejoin="round" stroke-miterlimit="10" d="
			M489,608.6c3.2-3.1,6.3-6.4,9.2-9.7"/>
		
			<path id="XMLID_671_" fill="none" stroke="#000000" stroke-width="4.5354" stroke-linecap="round" stroke-linejoin="round" stroke-miterlimit="10" d="
			M467.4,549c-4,10.5-9.6,20.4-13.7,30.8"/>
		
			<path id="XMLID_670_" fill="none" stroke="#000000" stroke-width="4.5354" stroke-linecap="round" stroke-linejoin="round" stroke-miterlimit="10" d="
			M450.7,584.8c-13.4,9-26.6,18.4-39.4,28.3l0.9,1.7"/>
		
			<path id="XMLID_669_" fill="none" stroke="#000000" stroke-width="4.5354" stroke-linecap="round" stroke-linejoin="round" stroke-miterlimit="10" d="
			M411.1,613.4c-4.1,3.4-8.2,6.9-11.8,10.7c-0.9,1-1.9,2-2.1,3.4c-0.3,1.3,0.4,2.9,1.7,3.2"/>
		
			<path id="XMLID_661_" fill="none" stroke="#000000" stroke-width="4.5354" stroke-linecap="round" stroke-linejoin="round" stroke-miterlimit="10" d="
			M401.5,631.8c26.5,4.6,51,20,66.7,41.9"/>
		
			<path id="XMLID_660_" fill="none" stroke="#000000" stroke-width="4.5354" stroke-linecap="round" stroke-linejoin="round" stroke-miterlimit="10" d="
			M399.9,633.2c-4.7,44.7-3.9,90,2.3,134.5c1.7,12.4,4.1,25.2,10.9,35.8c7.3,11.1,19.1,18.6,31.6,22.9c12.6,4.3,25.9,5.6,39.1,6.5
			c10.7,0.7,21.4,1.1,32.1,0.9c9.6-0.2,19.7-1.3,27.6-6.8c7.8-5.6,12.2-17.1,6.9-25.2"/>
		
			<path id="XMLID_659_" fill="none" stroke="#000000" stroke-width="4.5354" stroke-linecap="round" stroke-linejoin="round" stroke-miterlimit="10" d="
			M543,822.2c-4-0.8-5.4-5.8-6-9.8c-1.3-10.2-2.1-20.6-0.6-30.8c1.5-10.2,5.5-20.3,12.6-27.7"/>
		
			<path id="XMLID_658_" fill="none" stroke="#000000" stroke-width="4.5354" stroke-linecap="round" stroke-linejoin="round" stroke-miterlimit="10" d="
			M537.5,801.1c5-1,9.9-2,14.9-3c-3-15.4-3.9-31.2-2.6-46.9"/>
		
			<path id="XMLID_657_" fill="none" stroke="#000000" stroke-width="4.5354" stroke-linecap="round" stroke-linejoin="round" stroke-miterlimit="10" d="
			M542.7,791.7c1.6-0.7,3.7,0.7,3.7,2.5c-0.1,1.8-2.3,3-3.9,2.2c-1.5-0.9-1.6-3.4-0.2-4.4"/>
		
			<path id="XMLID_656_" fill="none" stroke="#000000" stroke-width="4.5354" stroke-linecap="round" stroke-linejoin="round" stroke-miterlimit="10" d="
			M550,750.9c-10.7,5.6-23.4,5.4-35.3,3.5c-11.9-1.9-23.6-5.4-35.6-5.9c-12-0.6-25,2.3-33.2,11.1"/>
		
			<path id="XMLID_655_" fill="none" stroke="#000000" stroke-width="4.5354" stroke-linecap="round" stroke-linejoin="round" stroke-miterlimit="10" d="
			M455.1,749.2c-2.1-1.7-5.3-1.5-7.7-0.4c-2.5,1.2-4.4,3.1-6.4,5c-2,1.9-4.1,3.8-6.6,4.6"/>
		
			<path id="XMLID_654_" fill="none" stroke="#000000" stroke-width="4.5354" stroke-linecap="round" stroke-linejoin="round" stroke-miterlimit="10" d="
			M464.2,744.6c0.6-10.8,0.2-21.6-1.2-32.3"/>
		
			<path id="XMLID_653_" fill="none" stroke="#000000" stroke-width="4.5354" stroke-linecap="round" stroke-linejoin="round" stroke-miterlimit="10" d="
			M432.8,743.4c7.2-12.5,16.3-23.8,27-33.4c4.3-13.4,3.1-28.5-3.1-41.1"/>
		
			<path id="XMLID_652_" fill="none" stroke="#000000" stroke-width="4.5354" stroke-linecap="round" stroke-linejoin="round" stroke-miterlimit="10" d="
			M458.2,690.4c-7.6,4-14.6,9.4-20.4,15.8"/>
		
			<path id="XMLID_651_" fill="none" stroke="#000000" stroke-width="4.5354" stroke-linecap="round" stroke-linejoin="round" stroke-miterlimit="10" d="
			M458.1,572.1c1.5,9.9,8.8,17.8,16.2,24.5c7.4,6.7,15.6,13,20.1,22"/>
		
			<path id="XMLID_650_" fill="none" stroke="#000000" stroke-width="4.5354" stroke-linecap="round" stroke-linejoin="round" stroke-miterlimit="10" d="
			M449.1,587.7c1.4,14.8,12.7,24.8,14.1,39.6c8.3-4,17.8-5.2,26.9-3.6"/>
		
			<path id="XMLID_649_" fill="none" stroke="#000000" stroke-width="4.5354" stroke-linecap="round" stroke-linejoin="round" stroke-miterlimit="10" d="
			M549.7,754.4c7.8-2,13.5-8.4,18.9-14.3c9.9-10.6,20.6-20.4,32-29.3c1.2-1,2.6-2,4.2-2.1c3-0.2,5.2,3.2,5,6.2c-0.2,3-2,5.6-3.8,8
			c-4.8,6.5-9.5,13.1-14.3,19.6"/>
		
			<path id="XMLID_648_" fill="none" stroke="#000000" stroke-width="4.5354" stroke-linecap="round" stroke-linejoin="round" stroke-miterlimit="10" d="
			M592.3,744.5c19.1,1.4,38.2,2.7,57.3,4.1c2,0.1,4.1,0.3,5.9,1.3c1.8,1,3.2,2.9,2.9,4.9c-0.5,3.1-4.3,4.2-7.5,4.7
			c-10.8,1.5-21.6,3-32.5,4.5c13.1,1.4,26.2,2.7,39.3,4.1c2.9,0.3,6.4,1.1,7.2,3.8c0.7,2.2-1,4.6-3.1,5.6c-2.1,1-4.5,0.9-6.8,0.8
			c-12.4-0.5-24.7-1-37.1-1.5c8.7,4.2,18.3,6.4,28,6.4c2.8,0,5.7-0.1,8.3,0.8c2.6,1,5,3.4,4.8,6.2c-0.2,2.6-2.5,4.6-5.1,5.3
			c-2.5,0.7-5.2,0.3-7.8-0.1c-11.6-1.8-23.2-3.6-34.9-5.4c8.8,4.9,17.6,9.9,26.4,14.8c1.2,0.7,2.5,1.5,2.8,2.8
			c0.5,1.8-1.3,3.6-3.2,3.9c-1.9,0.3-3.7-0.5-5.4-1.2c-25-10.6-52-16.3-79.1-16.7"/>
		
			<path id="XMLID_647_" fill="none" stroke="#000000" stroke-width="4.5354" stroke-linecap="round" stroke-linejoin="round" stroke-miterlimit="10" d="
			M704.6,636c6.3,6.1,8.7,15.9,5.9,24.2c-2.9,8.3-10.9,14.6-19.6,15.4"/>
		
			<path id="XMLID_646_" fill="none" stroke="#000000" stroke-width="4.5354" stroke-linecap="round" stroke-linejoin="round" stroke-miterlimit="10" d="
			M691.6,675.9c4.7,5,12.1,7.5,18.8,6.2c6.8-1.2,12.8-6,15.5-12.4"/>
		
			<path id="XMLID_645_" fill="none" stroke="#000000" stroke-width="4.5354" stroke-linecap="round" stroke-linejoin="round" stroke-miterlimit="10" d="
			M703.3,635c8.2,5.7,14.6,13.9,18.2,23.1c2.1,5.4,3.3,11.3,2.2,16.9c-1.1,5.7-4.8,11-10.2,13c-5.6,2.1-12,0.3-16.8-3
			c-4.9-3.4-8.5-8.2-12.1-12.9"/>
		
			<path id="XMLID_644_" fill="none" stroke="#000000" stroke-width="4.5354" stroke-linecap="round" stroke-linejoin="round" stroke-miterlimit="10" d="
			M683.9,673.2c7.5,14.5,14.9,29.1,22.4,43.6"/>
		
			<path id="XMLID_643_" fill="none" stroke="#000000" stroke-width="4.5354" stroke-linecap="round" stroke-linejoin="round" stroke-miterlimit="10" d="
			M702,635.8c16.1,2.4,31.9,8.6,43.6,20c11.7,11.3,18.6,28,16,44.1c-1,6.2-4.3,13-10.4,14.5c-2.4,0.6-5,0.3-7.3,1.2
			c-2.8,1.2-4.5,3.9-6.8,5.8c-4.5,3.6-11.1,3.6-16.5,1.5c-5.4-2.1-9.8-6-14.2-9.9"/>
		
			<path id="XMLID_642_" fill="none" stroke="#000000" stroke-width="4.5354" stroke-linecap="round" stroke-linejoin="round" stroke-miterlimit="10" d="
			M701.1,634.9c-6.8-3.4-12.8-8.6-17-15c-2.5-3.7-4.4-7.8-7.3-11.1c-3-3.4-7-5.7-10.9-8c-6.6-3.9-13.3-7.7-19.9-11.6
			c-2-1.2-4.7-2.3-6.5-0.9c-2.5,2-0.4,5.9,1.7,8.2c5.9,6.6,11.7,13.2,17.6,19.8"/>
		
			<path id="XMLID_641_" fill="none" stroke="#000000" stroke-width="4.5354" stroke-linecap="round" stroke-linejoin="round" stroke-miterlimit="10" d="
			M658.7,614.7c-3.6,5.1-11,5.2-17.3,4.7c-13.7-0.9-27.4-1.9-41.1-2.8c-2.3-0.2-5.6,0.6-5.3,2.9c0.2,1.5,1.9,2.2,3.3,2.6
			c9.9,2.9,19.9,5.8,29.8,8.7c-10.7-0.3-21.4-0.6-32.1-0.9c-2.7-0.1-5.5-0.1-7.7,1.3c-2.3,1.4-3.5,4.8-1.7,6.8
			c1,1.2,2.7,1.5,4.2,1.7c13.3,2.2,26.6,4.4,39.8,6.6c-10.9,0-21.8,0-32.7,0c-3.5,0-8.3,1.3-8,4.8c0.3,2.9,4,3.8,6.9,4.1
			c13,1.1,26,2.1,39,3.2c-9.1,1.8-18.1,3.7-27.2,5.5c-1.6,0.3-3.3,0.8-4.2,2.1c-1.4,2.2,0.9,5.2,3.5,5.7c2.6,0.5,5.2-0.6,7.7-1.3
			c18.8-5.5,39.2,7.3,58.2,2.4c2.6-0.7,5.1-1.6,7.8-1.7c2.7-0.1,5.6,1,6.8,3.4"/>
		
			<path id="XMLID_640_" fill="none" stroke="#000000" stroke-width="4.5354" stroke-linecap="round" stroke-linejoin="round" stroke-miterlimit="10" d="
			M462.8,703.8c10.2-21.5,6.6-48.1,19.1-68.4c5.4-8.8,13.4-15.6,21.2-22.3c5.1-4.4,10.2-8.7,15.3-13.1"/>
		
			<path id="XMLID_639_" fill="none" stroke="#000000" stroke-width="4.5354" stroke-linecap="round" stroke-linejoin="round" stroke-miterlimit="10" d="
			M495.5,615c4-20.3,15.8-39.1,32.5-51.3"/>
		
			<path id="XMLID_638_" fill="none" stroke="#000000" stroke-width="4.5354" stroke-linecap="round" stroke-linejoin="round" stroke-miterlimit="10" d="
			M568.9,501.7c9.6-5.3,19.4-10.5,29.9-13.7c10.5-3.1,22-4,32.4-0.4c9.9,3.4,18,10.7,24.3,19"/>
		
			<path id="XMLID_637_" fill="none" stroke="#000000" stroke-width="4.5354" stroke-linecap="round" stroke-linejoin="round" stroke-miterlimit="10" d="
			M655.7,500.2c3.4,6.2,7.5,12.2,13.2,16.5c5.6,4.3,12.9,6.9,19.9,5.7c1.7-0.3,3.5-0.9,4.8-2.1c1.2-1.3,1.7-3.4,0.7-4.8
			c-1.2-1.7-3.7-1.7-5.8-1.9c-8.2-0.8-14.7-7.1-19.7-13.6c-1.2-1.6-2.3-3.2-4-4.3c-1.6-1.1-3.8-1.7-5.6-0.9
			c-1.8,0.8-2.8,3.3-1.6,4.9"/>
		
			<path id="XMLID_636_" fill="none" stroke="#000000" stroke-width="4.5354" stroke-linecap="round" stroke-linejoin="round" stroke-miterlimit="10" d="
			M667.6,500.2c-2.3,3.8-2.7,8.6-1,12.7"/>
		
			<path id="XMLID_635_" fill="none" stroke="#000000" stroke-width="4.5354" stroke-linecap="round" stroke-linejoin="round" stroke-miterlimit="10" d="
			M674.1,506.4c-2.2,4.8-2.4,10.5-0.6,15.5c0.3,1,0.8,1.9,1.7,2.5c0.9,0.5,2.3,0.3,2.6-0.7"/>
		
			<path id="XMLID_634_" fill="none" stroke="#000000" stroke-width="4.5354" stroke-linecap="round" stroke-linejoin="round" stroke-miterlimit="10" d="
			M684.2,514.1c-1.4,2.6-1,6,0.9,8.2"/>
		
			<path id="XMLID_633_" fill="none" stroke="#000000" stroke-width="4.5354" stroke-linecap="round" stroke-linejoin="round" stroke-miterlimit="10" d="
			M661.1,493.9c4.7-22.1-15.7-43.7-11.3-65.8c0.5-2.6,1.4-5.2,3.5-6.9c2-1.7,5.4-2,7.1,0c2,2.2,1.2,6,3.4,8c1.8,1.7,4.7,1.1,7,0.1
			c2.2-1,4.4-2.5,6.9-2.4c2.5,0.1,4.9,2.8,3.6,4.9c8.7,0.9,17.4,2.8,25.7,5.7c3.8,1.3,7.9,3.4,8.8,7.3c1.1,4.7-3.3,8.8-7.2,11.7
			c-8.7,6.4-17.4,12.9-26.1,19.3"/>
		
			<path id="XMLID_632_" fill="none" stroke="#000000" stroke-width="4.5354" stroke-linecap="round" stroke-linejoin="round" stroke-miterlimit="10" d="
			M682.4,477.8c-1.5,1.7-3.1,3.6-3.2,5.9c-0.2,2.3,1.9,4.8,4.1,4.2c1.6-0.5,2.4-2.3,3-3.9c1.2-3.4,2.4-6.8,3.6-10.2"/>
		
			<path id="XMLID_631_" fill="none" stroke="#000000" stroke-width="4.5354" stroke-linecap="round" stroke-linejoin="round" stroke-miterlimit="10" d="
			M704.8,436.1c6.5-7,16.5-10.6,26-9.2c9.5,1.3,18.1,7.5,22.5,16.1c-2.6,0-4.9,2.2-5.8,4.7c-0.9,2.5-0.7,5.2-0.6,7.8
			c0.2,2.6,0.3,5.2,0.5,7.8c0.2,2.6,0.3,5.4-0.7,7.7c-2.3,5.1-8.8,6.5-14.2,7.9c-17.2,4.5-32.2,16.9-39.8,33"/>
		
			<path id="XMLID_630_" fill="none" stroke="#000000" stroke-width="4.5354" stroke-linecap="round" stroke-linejoin="round" stroke-miterlimit="10" d="
			M734.9,457.8c-18.6,3.6-35.2,16.8-42.8,34.2c14.3-11.6,28.5-23.3,42.8-34.9"/>
		
			<path id="XMLID_629_" fill="none" stroke="#000000" stroke-width="4.5354" stroke-linecap="round" stroke-linejoin="round" stroke-miterlimit="10" d="
			M695.1,518.2c3,4.9,8.3,7.9,13.8,9.6c5.5,1.6,11.3,2.1,16.9,3.1c15.5,2.8,30.4,10.4,40.4,22.5c10,12.2,14.4,29.2,9.9,44.2
			c-3.4,11.1-11.2,20.5-20.4,27.6c-9.2,7.1-19.8,12.2-30.3,17.1"/>
		
			<path id="XMLID_628_" fill="none" stroke="#000000" stroke-width="4.5354" stroke-linecap="round" stroke-linejoin="round" stroke-miterlimit="10" d="
			M705.6,717.3c5.5,8.8,5.6,20,3.7,30.1c-1.9,10.2-5.7,20-7.4,30.2c-2.2,13.3-1,27.1-4.6,40.1c-5.5,19.6-22.9,35.3-43,38.8
			c-12.3,2.1-25.1,0-37.1-3.5c-12-3.5-23.7-8.2-35.8-11.4c-14.4-3.8-29.3-5.3-44.2-4.6"/>
		
			<path id="XMLID_627_" fill="none" stroke="#000000" stroke-width="4.5354" stroke-linecap="round" stroke-linejoin="round" stroke-miterlimit="10" d="
			M537.9,838.6c-29.9,2.5-58.9,11.5-87.1,21.5c-9.1,3.2-19.8,6.5-27.9,1.1c-6.1-4-8.6-12-8.1-19.2c0.5-7.3,3.6-14.1,6.6-20.7"/>
		<path id="XMLID_626_" fill="none" stroke="#000000" stroke-width="4.5354" stroke-linecap="round" stroke-linejoin="round" d="
			M636.5,671.4c-3.6,22-22,41.1-46.4,38.5c-7.9,0.7-9.2,7.9-10.5,15.2c-6.6,0-12.5-2-17.9-3.7c1.4-3.4,5,1.2,0,0
			c2.1-4.9,0.8-10.8,3.4-15.4c-9.2-5.3-19.1-8.5-25-17.1c-9.2-15.1-5.3-33.6-1.2-49.7c11.2,2.5-1.6,5.6,0,0
			c13.7,2.3,26.2,7.5,40,8.8c-0.6,11.9-15.8,31,2,36.9c13.8-8.6,13.8-28.3,4.6-40.2c-9.9-13.2-24.4-22.4-30.3-37.5
			c-2.6-8.6-4-17.8-4-27.7c2.6-17.8,13.1-32.9,31.6-35.6c6.6,0,13.8,4.6,19.8,0c2-2.6,2.6-7.9,3.3-11.6c3,0.9-0.4,2.9,0,0
			c5.9,0.4,11.2,1.1,15.8,3.7c3.3,3.3,0.7,7.9-0.6,11.9l1.3,2.6c17.8,5.9,32.3,21.7,27.7,39.8"/>
		<path id="XMLID_625_" fill="none" stroke="#000000" stroke-width="4.5354" stroke-linecap="round" stroke-linejoin="round" d="
			M646.4,605.3l-39.9-9.3c1.5-6.3,6.7-18.1,0.9-23.1c-7.2-6.1-12.3,1.3-13.4,8.4c-2.3,15.6,13.1,26.7,23.3,35.8"/>
	</g>
</g>
<g id="Capa_9">
</g>
<g id="Capa_7">
</g>
<g id="Capa_8">
</g>
<g id="Capa_5">
</g>
<g id="Capa_2">
</g>
<g id="Capa_6">
</g>
</svg>
