<?xml version='1.0' encoding='utf-8'?>
<svg xmlns="http://www.w3.org/2000/svg" version="1.2" baseProfile="tiny" id="Capa_3" x="0px" y="0px" viewBox="0 0 802.3 747.1"> <g id="XMLID_10_"> <path id="XMLID_2_" fill="none" stroke="#c5bafb" stroke-width="4.8189" stroke-linecap="round" stroke-linejoin="round" stroke-miterlimit="10" d=" M316.8,262.6c5.7,1.1,11.7,0.1,17.1-1.9c5.5-2,10.5-5,15.5-7.9c7.2-4.3,14.5-8.6,21.2-13.7c2.6-2,5.1-4,7.6-6.1 c5.2-4.3,10.4-8.6,15.1-13.5c1.8-1.9,3.5-3.8,5.2-5.9c8.7-10.7,15.2-23.9,19.7-36.9c8.7,8.5,19.7,14.5,31.5,17.2 c11.8,2.7,24.4,2.1,35.9-1.8c-6.3,27.4-21.1,52-38.4,74.2c-16,20.6-34.2,39.9-56.4,53.3c-22.3-6.2-41-21.5-58.8-36.4 c-3.5-2.9-7-5.9-10.5-8.8c-3.3-2.8-7-6.4-6.4-10.7c0.1-0.6,0.3-1.1,0.7-1.5c0.4-0.4,1.2-0.3,1.5,0.2"/> <path id="XMLID_4_" fill="none" stroke="#c5bafb" stroke-width="4.8189" stroke-linecap="round" stroke-linejoin="round" stroke-miterlimit="10" d=" M470.6,214.2c-2.3-0.1-4.3-1.7-5.3-3.8c-1-2.1-1.1-4.5-0.8-6.7c-11.8-3.5-24.8-3.6-35.6-9.4c-3.3,1.9-7.1,2.7-10.9,2.6 c-1.5,20.7-57,63.2-76.7,68c2.9,3.9,1.8,10.1-2.3,12.8c8.8,12.2,21.8,21.5,36,26.5c1.4-1.8,3.2-5.4,5.3-6.3c3-1.3,6.1-2.4,9.4-2.2 c3.2,0.1,6.6,1.7,8.2,4.5c5.7-4.1,12.3-7.7,18.1-11.8c2.2-1.6,4.5-3.2,6.5-5.2c2.1-2.1,3.9-4.5,6-6.7c3.2-3.4,7-6.1,10.2-9.5 c2.7-2.9,4.8-6.1,6.9-9.4c2.9-4.4,5.7-8.8,8.6-13.2c2.7-4.1,5.4-8.3,7.8-12.6c2.8-5.1,5.2-10.5,8-15.7"/> <path id="XMLID_3_" fill="none" stroke="#c5bafb" stroke-width="4.8189" stroke-linecap="round" stroke-linejoin="round" stroke-miterlimit="10" d=" M383.2,262.8c-2.6-0.6-5.2-0.8-7.8-0.6c-0.5,0-1.1,0.1-1.6,0.4c-0.4,0.2-0.8,0.6-1.1,1c-2.7,3.6-2.3,9,0.5,12.5 c2.8,3.5,7.7,5.1,12.1,4.3c1-0.2,2-0.4,2.8-1c1.3-0.9,2.2-2.4,2.4-4c0.2-1.6-0.1-3.2-0.6-4.7c-1.1-3-3.3-5.7-6-7.5"/> <path id="XMLID_5_" fill="none" stroke="#c5bafb" stroke-width="4.8189" stroke-linecap="round" stroke-linejoin="round" stroke-miterlimit="10" d=" M439.4,207.2c-2.4-0.2-4.9,0.7-6.7,2.3s-3,3.9-3.2,6.4c-0.3,2.3,0.5,5,2.5,6.2c0.6,0.4,1.3,0.6,2,0.8c3.4,0.7,7.1-0.7,9.1-3.5 s2-6.9-0.1-9.6c-1.1-1.5-3-2.6-4.7-2"/> <path id="XMLID_7_" fill="none" stroke="#c5bafb" stroke-width="4.8189" stroke-linecap="round" stroke-linejoin="round" stroke-miterlimit="10" d=" M418.7,284.4c-3-6.2-4.4-13.1-4-20c-11.1-0.2-21.8-7.9-25.4-18.4c-1.6-4.7-1.6-10.7,2.1-14c3.1-2.7,7.7-2.8,11.8-2.2 c7.2,1.1,14.2,3.8,20.2,8c2.4,1.7,4.8,3.7,5.8,6.5c1.7,4.4-0.9,9.9-5.3,11.5c2.3,1.5,4.6,3,6.9,4.5"/> <path id="XMLID_8_" fill="none" stroke="#c5bafb" stroke-width="4.8189" stroke-linecap="round" stroke-linejoin="round" stroke-miterlimit="10" d=" M397.6,245.2c0.6,0.6,1.3,1.2,1.9,1.8c0.3,0.3,0.7,0.7,1.2,0.7c0.5,0,0.9-0.3,1.3-0.6c2.2-1.7,4.1-3.9,5.5-6.3 c0.6-1.1,1.2-2.4,2.4-2.9c0.7-0.3,1.6-0.3,2.4-0.2c1.8,0.3,3.5,0.9,5,1.8c0.9,0.5,1.8,1.2,2.2,2.2c0.4,1,0.3,2.2-0.6,2.8"/> <path id="XMLID_9_" fill="none" stroke="#c5bafb" stroke-width="4.8189" stroke-linecap="round" stroke-linejoin="round" stroke-miterlimit="10" d=" M430.5,251.7c5.3,1,10.7,1.1,16,0.5"/> </g> <g id="XMLID_155_"> <path id="XMLID_162_" fill="none" stroke="#c5bafb" stroke-width="4.8189" stroke-linecap="round" stroke-linejoin="round" stroke-miterlimit="10" d=" M174.3,122.2c5.7-1,10.9-4,15.4-7.8c4.4-3.8,8.1-8.3,11.7-12.8c5.3-6.6,10.5-13.1,15-20.3c1.7-2.7,3.3-5.5,5-8.3 c3.4-5.8,6.7-11.7,9.4-17.9c1-2.4,2-4.8,2.8-7.3c4.5-13.1,6-27.7,5.6-41.5c11.1,4.9,23.5,6.7,35.5,5.1s23.6-6.6,33-14.2 c3.6,27.8-1.7,56.1-10.1,82.9c-7.8,24.8-18.1,49.3-34.3,69.7c-23.1,2-46-5.8-67.8-13.6c-4.3-1.5-8.6-3.1-12.9-4.6 c-4.1-1.5-8.8-3.6-9.7-7.8c-0.1-0.6-0.2-1.2,0.1-1.7c0.3-0.5,1-0.7,1.4-0.4"/> <path id="XMLID_161_" fill="none" stroke="#c5bafb" stroke-width="4.8189" stroke-linecap="round" stroke-linejoin="round" stroke-miterlimit="10" d=" M301.5,23.2c-2.2,0.8-4.7-0.1-6.3-1.7s-2.6-3.8-3.1-6c-12.3,0.8-24.5,5.2-36.7,3.6c-2.4,2.9-5.7,5-9.3,6.2 c5.8,19.9-31.4,79.1-48.1,90.5c4,2.6,5.2,8.9,2.3,12.8c12.6,8.4,27.9,12.5,43,12.2c0.7-2.2,1.2-6.2,2.8-7.8c2.3-2.3,4.9-4.4,8-5.4 c3.1-1,6.7-0.7,9.2,1.4c3.9-5.9,8.9-11.5,12.8-17.4c1.5-2.3,3.1-4.6,4.3-7.1c1.3-2.7,2.1-5.6,3.3-8.4c1.8-4.3,4.4-8.2,6.2-12.4 c1.5-3.6,2.4-7.4,3.2-11.2c1.2-5.1,2.3-10.2,3.5-15.3c1.1-4.8,2.2-9.7,2.9-14.5c0.8-5.8,1.2-11.7,2-17.5"/> <path id="XMLID_160_" fill="none" stroke="#c5bafb" stroke-width="4.8189" stroke-linecap="round" stroke-linejoin="round" stroke-miterlimit="10" d=" M236.6,99.2c-2.6,0.3-5.2,1.1-7.6,2.2c-0.5,0.2-1,0.5-1.3,0.9c-0.3,0.4-0.5,0.9-0.7,1.4c-1.3,4.3,1,9.3,4.9,11.6 c3.9,2.3,9,2,12.9-0.2c0.9-0.5,1.7-1.1,2.3-1.9c1-1.3,1.2-3,0.8-4.6c-0.3-1.6-1.2-3-2.3-4.2c-2.1-2.5-5-4.2-8.2-4.9"/> <path id="XMLID_159_" fill="none" stroke="#c5bafb" stroke-width="4.8189" stroke-linecap="round" stroke-linejoin="round" stroke-miterlimit="10" d=" M269.9,27.5c-2.3,0.7-4.4,2.3-5.5,4.5s-1.4,4.7-0.8,7.1c0.6,2.3,2.2,4.5,4.5,5c0.7,0.1,1.4,0.1,2.1,0c3.4-0.5,6.4-3.1,7.3-6.5 c0.9-3.3-0.6-7.1-3.5-9c-1.5-1-3.7-1.4-5.1-0.2"/> <path id="XMLID_158_" fill="none" stroke="#c5bafb" stroke-width="4.8189" stroke-linecap="round" stroke-linejoin="round" stroke-miterlimit="10" d=" M277.4,107.1c-5-4.7-8.7-10.8-10.7-17.3c-10.5,3.7-23.2,0.2-30.2-8.4c-3.2-3.9-5.2-9.4-2.9-13.8c1.9-3.6,6.2-5.3,10.2-6.2 c7.1-1.5,14.6-1.4,21.7,0.4c2.8,0.7,5.7,1.8,7.7,4c3.1,3.5,2.6,9.6-0.9,12.6c2.7,0.6,5.3,1.2,8,1.8"/> <path id="XMLID_157_" fill="none" stroke="#c5bafb" stroke-width="4.8189" stroke-linecap="round" stroke-linejoin="round" stroke-miterlimit="10" d=" M244,77.7c0.8,0.3,1.6,0.7,2.4,1c0.4,0.2,0.9,0.4,1.4,0.2c0.5-0.1,0.8-0.6,1-1c1.5-2.4,2.5-5.1,2.9-7.8c0.2-1.3,0.3-2.6,1.3-3.5 c0.6-0.6,1.4-0.8,2.2-1c1.7-0.4,3.5-0.4,5.3-0.1c1,0.2,2.1,0.5,2.8,1.3c0.7,0.7,1,2,0.4,2.9"/> <path id="XMLID_156_" fill="none" stroke="#c5bafb" stroke-width="4.8189" stroke-linecap="round" stroke-linejoin="round" stroke-miterlimit="10" d=" M277.1,72.3c5.3-0.9,10.4-2.7,15.2-5.1"/> </g> <g id="XMLID_97_"> <path id="XMLID_104_" fill="none" stroke="#c5bafb" stroke-width="4.8189" stroke-linecap="round" stroke-linejoin="round" stroke-miterlimit="10" d=" M463.4,416.9c-4.2-4-9.8-6.4-15.4-7.6s-11.5-1.5-17.3-1.7c-8.4-0.3-16.8-0.5-25.2,0.1c-3.2,0.3-6.4,0.6-9.6,1 c-6.7,0.8-13.4,1.6-20,3.2c-2.5,0.6-5,1.3-7.5,2.1c-13.1,4.3-25.7,11.9-36.6,20.4c-2.7-11.8-8.7-22.9-17.2-31.5 s-19.4-14.9-31.2-17.9c20.1-19.6,45.9-32.3,72.3-41.7c24.5-8.7,50.3-15.1,76.3-14.4c15.4,17.2,22.9,40.3,29.8,62.4 c1.4,4.4,2.7,8.7,4.1,13.1c1.3,4.2,2.4,9.2-0.4,12.5c-0.4,0.4-0.8,0.8-1.4,0.9c-0.6,0.1-1.2-0.4-1.2-0.9"/> <path id="XMLID_103_" fill="none" stroke="#c5bafb" stroke-width="4.8189" stroke-linecap="round" stroke-linejoin="round" stroke-miterlimit="10" d=" M307.9,374.5c1.9,1.3,2.7,3.8,2.4,6.1c-0.3,2.3-1.5,4.3-2.9,6.1c8,9.3,18.9,16.4,24.9,27.2c3.8,0.2,7.4,1.5,10.5,3.7 c12.4-16.6,82.1-22.3,101.3-15.8c-0.3-4.8,4-9.5,8.8-9.5c-0.8-15.1-6.7-29.8-16-41.7c-2.2,0.8-5.6,2.8-7.9,2.4 c-3.2-0.5-6.4-1.3-9.1-3.2c-2.6-1.9-4.6-5-4.4-8.2c-7.1,0.4-14.5-0.2-21.6,0.2c-2.8,0.1-5.5,0.3-8.3,0.8c-2.9,0.6-5.8,1.7-8.7,2.4 c-4.5,1.1-9.2,1.4-13.7,2.5c-3.8,1-7.3,2.6-10.9,4.2c-4.8,2.1-9.6,4.3-14.4,6.4c-4.5,2-9,4-13.4,6.4c-5.1,2.8-10,6.1-15.2,8.9"/> <path id="XMLID_102_" fill="none" stroke="#c5bafb" stroke-width="4.8189" stroke-linecap="round" stroke-linejoin="round" stroke-miterlimit="10" d=" M407.7,380.9c1.8,1.9,4,3.5,6.3,4.7c0.5,0.3,1,0.5,1.5,0.5c0.5,0,1-0.1,1.5-0.3c4.2-1.6,6.8-6.3,6.3-10.8 c-0.5-4.5-3.7-8.4-7.9-10.2c-0.9-0.4-1.9-0.7-2.9-0.7c-1.6,0-3.1,0.9-4.2,2.1s-1.7,2.8-2,4.3c-0.7,3.2-0.4,6.6,1,9.5"/> <path id="XMLID_101_" fill="none" stroke="#c5bafb" stroke-width="4.8189" stroke-linecap="round" stroke-linejoin="round" stroke-miterlimit="10" d=" M330.3,397.3c1.9,1.5,4.5,2.1,6.9,1.7c2.4-0.4,4.6-1.7,6.1-3.6c1.5-1.8,2.3-4.4,1.3-6.6c-0.3-0.6-0.8-1.2-1.3-1.7 c-2.4-2.4-6.4-3.3-9.5-1.9s-5.4,4.7-5.1,8.2c0.1,1.8,1.1,3.8,2.9,4.2"/> <path id="XMLID_100_" fill="none" stroke="#c5bafb" stroke-width="4.8189" stroke-linecap="round" stroke-linejoin="round" stroke-miterlimit="10" d=" M389.5,343.5c-0.8,6.8-3.4,13.4-7.4,19c9.3,6.2,14,18.4,11.4,29.2c-1.2,4.9-4.4,9.8-9.3,10.6c-4.1,0.6-8-1.8-11.1-4.5 c-5.5-4.8-9.9-10.9-12.7-17.6c-1.1-2.7-2-5.7-1.4-8.6c0.9-4.6,6.1-7.9,10.6-6.8c-1.1-2.5-2.2-5-3.3-7.5"/> <path id="XMLID_99_" fill="none" stroke="#c5bafb" stroke-width="4.8189" stroke-linecap="round" stroke-linejoin="round" stroke-miterlimit="10" d=" M386,387.8c-0.2-0.8-0.4-1.7-0.7-2.5c-0.1-0.5-0.3-1-0.6-1.2c-0.4-0.3-0.9-0.3-1.4-0.2c-2.8,0.3-5.5,1.1-8,2.4 c-1.1,0.6-2.3,1.3-3.6,1.1c-0.8-0.1-1.5-0.6-2.1-1.1c-1.3-1.2-2.5-2.6-3.3-4.2c-0.5-0.9-0.8-2-0.7-3c0.2-1,1-2,2-2"/> <path id="XMLID_98_" fill="none" stroke="#c5bafb" stroke-width="4.8189" stroke-linecap="round" stroke-linejoin="round" stroke-miterlimit="10" d=" M361.8,364.6c-3.9-3.7-8.4-6.7-13.2-9.1"/> </g> <g id="XMLID_139_"> <path id="XMLID_146_" fill="none" stroke="#c5bafb" stroke-width="4.8189" stroke-linecap="round" stroke-linejoin="round" stroke-miterlimit="10" d=" M275.9,704.9c4-4.2,6.4-9.7,7.7-15.4s1.5-11.5,1.8-17.3c0.3-8.4,0.6-16.8,0-25.2c-0.2-3.2-0.6-6.4-1-9.7c-0.8-6.7-1.6-13.4-3.1-20 c-0.6-2.5-1.3-5-2.1-7.5c-4.2-13.2-11.7-25.8-20.3-36.7c11.8-2.6,22.9-8.6,31.6-17.1c8.7-8.4,15-19.3,18-31.1 c19.5,20.2,32.1,46,41.3,72.5c8.6,24.6,14.8,50.4,14,76.4c-17.3,15.4-40.4,22.7-62.5,29.5c-4.4,1.3-8.7,2.7-13.1,4 c-4.2,1.3-9.2,2.4-12.4-0.5c-0.4-0.4-0.8-0.8-0.9-1.4c-0.1-0.6,0.4-1.2,1-1.1"/> <path id="XMLID_145_" fill="none" stroke="#c5bafb" stroke-width="4.8189" stroke-linecap="round" stroke-linejoin="round" stroke-miterlimit="10" d=" M319.1,549.6c-1.3,1.9-3.8,2.7-6.1,2.4c-2.3-0.3-4.3-1.5-6.1-3c-9.3,8-16.5,18.8-27.3,24.8c-0.2,3.8-1.6,7.4-3.7,10.5 c16.6,12.5,22,82.2,15.3,101.3c4.8-0.3,9.4,4,9.5,8.9c15.1-0.8,29.9-6.6,41.8-15.8c-0.8-2.2-2.7-5.6-2.4-7.9 c0.5-3.2,1.3-6.4,3.2-9.1c1.9-2.6,5-4.6,8.2-4.4c-0.3-7.1,0.3-14.5-0.1-21.6c-0.1-2.8-0.3-5.5-0.8-8.3c-0.6-2.9-1.7-5.8-2.4-8.7 c-1.1-4.5-1.3-9.2-2.4-13.7c-0.9-3.8-2.5-7.4-4.1-10.9c-2.1-4.8-4.2-9.6-6.4-14.4c-2-4.5-4-9.1-6.3-13.4c-2.8-5.2-6-10.1-8.8-15.2"/> <path id="XMLID_144_" fill="none" stroke="#c5bafb" stroke-width="4.8189" stroke-linecap="round" stroke-linejoin="round" stroke-miterlimit="10" d=" M312.2,649.3c-1.9,1.8-3.5,4-4.8,6.3c-0.3,0.5-0.5,1-0.5,1.5c0,0.5,0.1,1,0.3,1.5c1.6,4.2,6.3,6.9,10.8,6.4 c4.5-0.5,8.4-3.7,10.2-7.8c0.4-0.9,0.7-1.9,0.7-2.9c0-1.6-0.9-3.1-2.1-4.2c-1.2-1.1-2.8-1.7-4.3-2c-3.2-0.7-6.6-0.4-9.5,0.9"/> <path id="XMLID_143_" fill="none" stroke="#c5bafb" stroke-width="4.8189" stroke-linecap="round" stroke-linejoin="round" stroke-miterlimit="10" d=" M296.2,571.9c-1.5,1.9-2.1,4.5-1.7,6.9c0.4,2.4,1.7,4.6,3.6,6.2c1.8,1.5,4.4,2.3,6.6,1.3c0.6-0.3,1.2-0.7,1.7-1.2 c2.4-2.4,3.3-6.3,2-9.5c-1.3-3.2-4.7-5.4-8.1-5.2c-1.8,0.1-3.8,1.1-4.2,2.9"/> <path id="XMLID_142_" fill="none" stroke="#c5bafb" stroke-width="4.8189" stroke-linecap="round" stroke-linejoin="round" stroke-miterlimit="10" d=" M349.7,631.3c-6.8-0.8-13.4-3.4-19-7.5c-6.2,9.2-18.5,14-29.3,11.3c-4.9-1.2-9.8-4.4-10.6-9.4c-0.6-4.1,1.8-8,4.5-11.1 c4.8-5.5,10.9-9.8,17.7-12.6c2.7-1.1,5.7-2,8.6-1.4c4.6,1,7.8,6.1,6.7,10.6c2.5-1.1,5-2.2,7.5-3.3"/> <path id="XMLID_141_" fill="none" stroke="#c5bafb" stroke-width="4.8189" stroke-linecap="round" stroke-linejoin="round" stroke-miterlimit="10" d=" M305.4,627.6c0.8-0.2,1.7-0.4,2.5-0.6c0.5-0.1,1-0.3,1.2-0.6c0.3-0.4,0.3-0.9,0.2-1.4c-0.2-2.8-1-5.5-2.3-8 c-0.6-1.1-1.3-2.3-1.1-3.6c0.1-0.8,0.6-1.5,1.1-2.1c1.2-1.3,2.6-2.4,4.2-3.2c0.9-0.5,2-0.8,3-0.7c1,0.2,2,1,2,2.1"/> <path id="XMLID_140_" fill="none" stroke="#c5bafb" stroke-width="4.8189" stroke-linecap="round" stroke-linejoin="round" stroke-miterlimit="10" d=" M328.7,603.5c3.7-3.9,6.8-8.4,9.2-13.2"/> </g> <g id="XMLID_131_"> <path id="XMLID_138_" fill="none" stroke="#c5bafb" stroke-width="4.8189" stroke-linecap="round" stroke-linejoin="round" stroke-miterlimit="10" d=" M672.5,495.9c-5.7-1-11.7,0.1-17.1,2.1c-5.4,2.1-10.4,5.1-15.4,8.1c-7.2,4.4-14.4,8.8-21,14c-2.6,2-5,4.1-7.5,6.2 c-5.1,4.4-10.3,8.7-14.9,13.6c-1.8,1.9-3.5,3.9-5.1,5.9c-8.6,10.8-15,24-19.3,37.2c-8.8-8.4-19.9-14.3-31.7-16.9 c-11.8-2.6-24.4-1.8-35.8,2.2c6-27.4,20.6-52.2,37.5-74.6c15.7-20.7,33.7-40.2,55.9-53.9c22.4,5.9,41.3,21.1,59.2,35.7 c3.5,2.9,7.1,5.8,10.6,8.7c3.4,2.8,7.1,6.3,6.5,10.6c-0.1,0.6-0.3,1.2-0.7,1.5c-0.4,0.4-1.2,0.3-1.5-0.2"/> <path id="XMLID_137_" fill="none" stroke="#c5bafb" stroke-width="4.8189" stroke-linecap="round" stroke-linejoin="round" stroke-miterlimit="10" d=" M519.3,546c2.3,0,4.3,1.7,5.3,3.8c1,2.1,1.1,4.5,0.9,6.7c11.8,3.4,24.8,3.4,35.7,9.1c3.3-1.9,7-2.8,10.8-2.7 c1.3-20.7,56.3-63.8,75.9-68.8c-2.9-3.9-1.9-10.1,2.1-12.8c-9-12.1-22-21.2-36.3-26.1c-1.4,1.8-3.2,5.4-5.3,6.4 c-2.9,1.4-6.1,2.5-9.3,2.3c-3.2-0.1-6.6-1.6-8.2-4.4c-5.7,4.2-12.2,7.8-17.9,12c-2.2,1.6-4.5,3.3-6.4,5.2c-2.1,2.1-3.9,4.6-5.9,6.8 c-3.1,3.4-6.9,6.2-10,9.6c-2.6,2.9-4.7,6.2-6.8,9.5c-2.8,4.4-5.6,8.8-8.5,13.3c-2.7,4.2-5.3,8.3-7.7,12.7c-2.8,5.2-5,10.6-7.8,15.8 "/> <path id="XMLID_136_" fill="none" stroke="#c5bafb" stroke-width="4.8189" stroke-linecap="round" stroke-linejoin="round" stroke-miterlimit="10" d=" M606.2,496.5c2.6,0.6,5.2,0.7,7.9,0.5c0.5,0,1.1-0.1,1.6-0.4c0.4-0.2,0.8-0.6,1.1-1c2.7-3.6,2.2-9.1-0.6-12.5 c-2.9-3.5-7.8-5-12.2-4.2c-1,0.2-2,0.5-2.8,1c-1.3,0.9-2.1,2.5-2.4,4.1c-0.2,1.6,0.1,3.2,0.7,4.7c1.2,3,3.3,5.7,6.1,7.4"/> <path id="XMLID_135_" fill="none" stroke="#c5bafb" stroke-width="4.8189" stroke-linecap="round" stroke-linejoin="round" stroke-miterlimit="10" d=" M550.6,552.7c2.4,0.2,4.9-0.7,6.7-2.4s2.9-4,3.1-6.4c0.2-2.3-0.5-5-2.5-6.2c-0.6-0.4-1.3-0.6-2-0.7c-3.4-0.7-7.1,0.8-9,3.6 c-1.9,2.8-1.9,6.9,0.2,9.6c1.1,1.4,3,2.5,4.7,1.9"/> <path id="XMLID_134_" fill="none" stroke="#c5bafb" stroke-width="4.8189" stroke-linecap="round" stroke-linejoin="round" stroke-miterlimit="10" d=" M570.4,475.2c3.1,6.1,4.6,13.1,4.2,19.9c11.1,0.1,21.9,7.7,25.6,18.2c1.7,4.7,1.7,10.6-2,14c-3,2.8-7.6,2.9-11.7,2.4 c-7.2-1-14.2-3.7-20.3-7.8c-2.4-1.7-4.8-3.7-5.9-6.4c-1.7-4.4,0.7-9.9,5.1-11.5c-2.3-1.5-4.6-3-6.9-4.4"/> <path id="XMLID_133_" fill="none" stroke="#c5bafb" stroke-width="4.8189" stroke-linecap="round" stroke-linejoin="round" stroke-miterlimit="10" d=" M591.9,514.2c-0.6-0.6-1.3-1.2-1.9-1.8c-0.3-0.3-0.7-0.7-1.2-0.7c-0.5,0-0.9,0.3-1.3,0.6c-2.2,1.7-4,3.9-5.4,6.4 c-0.6,1.1-1.2,2.4-2.4,2.9c-0.7,0.3-1.6,0.3-2.4,0.2c-1.8-0.2-3.5-0.8-5-1.7c-0.9-0.5-1.8-1.2-2.2-2.1c-0.4-1-0.3-2.2,0.6-2.8"/> <path id="XMLID_132_" fill="none" stroke="#c5bafb" stroke-width="4.8189" stroke-linecap="round" stroke-linejoin="round" stroke-miterlimit="10" d=" M558.9,508.1c-5.3-0.9-10.7-1-16-0.4"/> </g> <g id="XMLID_105_"> <path id="XMLID_112_" fill="none" stroke="#c5bafb" stroke-width="4.8189" stroke-linecap="round" stroke-linejoin="round" stroke-miterlimit="10" d=" M484,351.2c5.1,2.8,11,3.7,16.8,3.5c5.8-0.2,11.5-1.4,17.2-2.7c8.2-1.8,16.4-3.7,24.4-6.4c3.1-1,6.1-2.2,9.1-3.4 c6.3-2.4,12.6-4.9,18.5-8.1c2.3-1.2,4.5-2.5,6.7-3.9c11.7-7.4,22-17.9,30.3-28.9c5.6,10.8,14.2,20,24.5,26.2s22.5,9.6,34.6,9.5 c-14.6,24-36.4,42.7-59.7,58.4c-21.6,14.5-44.9,27.1-70.3,32.9c-19.3-12.9-32.2-33.3-44.4-53c-2.4-3.9-4.8-7.8-7.2-11.7 c-2.3-3.7-4.6-8.3-2.7-12.2c0.3-0.5,0.6-1,1.1-1.2c0.5-0.2,1.3,0.1,1.4,0.6"/> <path id="XMLID_111_" fill="none" stroke="#c5bafb" stroke-width="4.8189" stroke-linecap="round" stroke-linejoin="round" stroke-miterlimit="10" d=" M645.2,353.5c-2.2-0.8-3.6-3-3.8-5.3s0.4-4.6,1.3-6.7c-10.1-7-22.4-11.2-30.9-20.1c-3.7,0.8-7.6,0.4-11.1-1 c-7.9,19.2-74,42.1-94.1,40.5c1.5,4.6-1.5,10.1-6.2,11.4c4.6,14.4,14,27.2,25.9,36.4c1.9-1.3,4.7-4.1,7.1-4.3 c3.2-0.3,6.6-0.3,9.6,0.8c3,1.2,5.7,3.6,6.3,6.8c6.7-2.1,14.1-3.4,20.8-5.5c2.6-0.8,5.3-1.7,7.8-2.9c2.7-1.3,5.2-3.1,7.8-4.5 c4.1-2.2,8.6-3.6,12.6-5.8c3.4-1.9,6.5-4.3,9.5-6.7c4.1-3.3,8.2-6.5,12.3-9.8c3.9-3.1,7.7-6.2,11.4-9.5c4.3-4,8.2-8.4,12.5-12.4"/> <path id="XMLID_110_" fill="none" stroke="#c5bafb" stroke-width="4.8189" stroke-linecap="round" stroke-linejoin="round" stroke-miterlimit="10" d=" M547,372.2c-2.3-1.4-4.7-2.4-7.3-3c-0.5-0.1-1.1-0.2-1.6-0.2c-0.5,0.1-1,0.3-1.4,0.6c-3.7,2.6-5,7.8-3.4,12.1s5.7,7.2,10.2,7.9 c1,0.2,2,0.2,3-0.1c1.6-0.4,2.8-1.6,3.5-3.1c0.7-1.4,0.9-3.1,0.9-4.7c-0.1-3.2-1.3-6.5-3.3-9"/> <path id="XMLID_109_" fill="none" stroke="#c5bafb" stroke-width="4.8189" stroke-linecap="round" stroke-linejoin="round" stroke-miterlimit="10" d=" M617.8,337.1c-2.2-1-4.9-0.9-7.1,0.1c-2.2,1-4,2.8-5.1,5c-1,2.1-1.1,4.9,0.4,6.7c0.5,0.5,1,1,1.6,1.3c3,1.7,7,1.6,9.7-0.5 c2.8-2.1,4-5.9,2.9-9.2c-0.6-1.7-2-3.4-3.8-3.4"/> <path id="XMLID_108_" fill="none" stroke="#c5bafb" stroke-width="4.8189" stroke-linecap="round" stroke-linejoin="round" stroke-miterlimit="10" d=" M573.9,403.9c-0.9-6.8-0.1-13.9,2.5-20.2c-10.5-3.7-18.2-14.3-18.3-25.5c-0.1-5,1.8-10.6,6.4-12.6c3.8-1.6,8.2-0.3,11.9,1.6 c6.5,3.3,12.3,8.1,16.6,13.9c1.8,2.4,3.3,5,3.5,8c0.2,4.7-3.9,9.1-8.6,9.2c1.7,2.1,3.4,4.3,5.1,6.4"/> <path id="XMLID_107_" fill="none" stroke="#c5bafb" stroke-width="4.8189" stroke-linecap="round" stroke-linejoin="round" stroke-miterlimit="10" d=" M566.2,360.1c0.4,0.8,0.8,1.5,1.3,2.3c0.2,0.4,0.5,0.9,0.9,1c0.4,0.2,1,0,1.4-0.1c2.6-0.9,5.1-2.4,7.2-4.3c0.9-0.9,1.9-1.8,3.2-2 c0.8-0.1,1.6,0.2,2.3,0.6c1.6,0.8,3,1.9,4.2,3.2c0.7,0.8,1.3,1.7,1.4,2.8s-0.5,2.2-1.5,2.5"/> <path id="XMLID_106_" fill="none" stroke="#c5bafb" stroke-width="4.8189" stroke-linecap="round" stroke-linejoin="round" stroke-miterlimit="10" d=" M595.4,376.5c4.7,2.6,9.8,4.4,15.1,5.5"/> </g> <g id="XMLID_71_"> <path id="XMLID_78_" fill="none" stroke="#c5bafb" stroke-width="4.8189" stroke-linecap="round" stroke-linejoin="round" stroke-miterlimit="10" d=" M511.6,303c4-4.2,6.4-9.7,7.7-15.4s1.6-11.5,1.8-17.3c0.3-8.4,0.7-16.8,0.1-25.2c-0.2-3.2-0.6-6.4-1-9.7c-0.8-6.7-1.5-13.4-3.1-20 c-0.6-2.5-1.3-5-2.1-7.5c-4.2-13.2-11.7-25.8-20.2-36.7c11.8-2.6,22.9-8.6,31.6-17c8.7-8.4,15-19.3,18.1-31 c19.5,20.2,32,46.1,41.2,72.6c8.5,24.6,14.7,50.4,13.9,76.4c-17.3,15.3-40.4,22.6-62.6,29.4c-4.4,1.3-8.8,2.7-13.1,4 c-4.2,1.3-9.2,2.4-12.4-0.5c-0.4-0.4-0.8-0.8-0.9-1.4c-0.1-0.6,0.4-1.2,1-1.1"/> <path id="XMLID_77_" fill="none" stroke="#c5bafb" stroke-width="4.8189" stroke-linecap="round" stroke-linejoin="round" stroke-miterlimit="10" d=" M555,147.8c-1.3,1.9-3.8,2.7-6.1,2.4c-2.3-0.3-4.3-1.5-6.1-3c-9.4,8-16.6,18.8-27.4,24.7c-0.2,3.8-1.6,7.4-3.8,10.5 c16.6,12.6,21.8,82.3,15.1,101.4c4.8-0.3,9.4,4,9.5,8.9c15.1-0.7,29.9-6.5,41.8-15.7c-0.8-2.2-2.7-5.6-2.4-7.9 c0.5-3.2,1.3-6.4,3.2-9.1s5-4.6,8.2-4.4c-0.3-7.1,0.3-14.5,0-21.6c-0.1-2.8-0.2-5.5-0.8-8.3c-0.6-2.9-1.7-5.8-2.4-8.7 c-1.1-4.5-1.3-9.2-2.4-13.7c-0.9-3.8-2.5-7.4-4.1-10.9c-2.1-4.8-4.2-9.6-6.3-14.4c-2-4.5-4-9.1-6.3-13.4c-2.8-5.2-6-10.1-8.8-15.2"/> <path id="XMLID_76_" fill="none" stroke="#c5bafb" stroke-width="4.8189" stroke-linecap="round" stroke-linejoin="round" stroke-miterlimit="10" d=" M548,247.5c-1.9,1.8-3.5,3.9-4.8,6.3c-0.3,0.5-0.5,1-0.6,1.5c0,0.5,0.1,1,0.3,1.5c1.5,4.2,6.3,6.9,10.8,6.4 c4.5-0.5,8.4-3.7,10.2-7.8c0.4-0.9,0.7-1.9,0.7-2.9c0-1.6-0.9-3.2-2.1-4.2c-1.2-1.1-2.8-1.7-4.3-2.1c-3.2-0.7-6.6-0.4-9.5,0.9"/> <path id="XMLID_75_" fill="none" stroke="#c5bafb" stroke-width="4.8189" stroke-linecap="round" stroke-linejoin="round" stroke-miterlimit="10" d=" M532.1,170.1c-1.5,1.9-2.1,4.5-1.7,6.9c0.4,2.4,1.7,4.6,3.6,6.2c1.8,1.5,4.4,2.3,6.6,1.3c0.6-0.3,1.2-0.7,1.7-1.2 c2.4-2.4,3.3-6.3,2-9.5c-1.3-3.2-4.7-5.4-8.1-5.2c-1.8,0.1-3.8,1.1-4.2,2.9"/> <path id="XMLID_74_" fill="none" stroke="#c5bafb" stroke-width="4.8189" stroke-linecap="round" stroke-linejoin="round" stroke-miterlimit="10" d=" M585.5,229.6c-6.8-0.8-13.4-3.5-18.9-7.6c-6.2,9.2-18.5,13.9-29.3,11.2c-4.8-1.2-9.8-4.5-10.6-9.4c-0.6-4.1,1.8-8,4.5-11.1 c4.8-5.5,10.9-9.8,17.7-12.5c2.7-1.1,5.7-2,8.6-1.3c4.6,1,7.8,6.1,6.7,10.7c2.5-1.1,5-2.2,7.5-3.3"/> <path id="XMLID_73_" fill="none" stroke="#c5bafb" stroke-width="4.8189" stroke-linecap="round" stroke-linejoin="round" stroke-miterlimit="10" d=" M541.2,225.8c0.8-0.2,1.7-0.4,2.5-0.6c0.5-0.1,1-0.3,1.2-0.6c0.3-0.4,0.3-0.9,0.2-1.4c-0.2-2.8-1-5.5-2.3-8 c-0.6-1.1-1.3-2.3-1.1-3.6c0.1-0.8,0.6-1.5,1.2-2.1c1.2-1.3,2.6-2.4,4.2-3.2c0.9-0.5,2-0.8,3-0.7c1,0.2,2,1,2,2.1"/> <path id="XMLID_72_" fill="none" stroke="#c5bafb" stroke-width="4.8189" stroke-linecap="round" stroke-linejoin="round" stroke-miterlimit="10" d=" M564.5,201.8c3.7-3.9,6.8-8.3,9.2-13.1"/> </g> <g id="XMLID_45_"> <path id="XMLID_52_" fill="none" stroke="#c5bafb" stroke-width="4.8189" stroke-linecap="round" stroke-linejoin="round" stroke-miterlimit="10" d=" M196,159.1c4.4,3.8,10,5.9,15.8,6.9c5.7,1,11.6,1,17.4,0.9c8.4-0.1,16.9-0.2,25.2-1.2c3.2-0.4,6.4-0.9,9.6-1.5 c6.6-1.1,13.3-2.2,19.8-4.1c2.5-0.7,5-1.6,7.4-2.5c12.9-4.8,25.2-13,35.6-22c3.2,11.7,9.7,22.4,18.6,30.7s20,14,31.9,16.5 c-19.2,20.5-44.4,34.3-70.4,44.8c-24.1,9.8-49.6,17.3-75.6,17.7c-16.2-16.5-24.7-39.2-32.5-61c-1.6-4.3-3.1-8.6-4.7-12.9 c-1.5-4.1-2.8-9.1-0.1-12.5c0.4-0.4,0.8-0.9,1.4-0.9c0.6-0.1,1.2,0.3,1.2,0.9"/> <path id="XMLID_51_" fill="none" stroke="#c5bafb" stroke-width="4.8189" stroke-linecap="round" stroke-linejoin="round" stroke-miterlimit="10" d=" M353.2,194.5c-2-1.2-2.9-3.7-2.7-6s1.3-4.4,2.7-6.3c-8.4-8.9-19.6-15.6-26.1-26.1c-3.8,0-7.5-1.2-10.7-3.2 c-11.7,17.2-81,26-100.5,20.3c0.5,4.8-3.6,9.6-8.4,9.9c1.5,15,8,29.5,17.8,41c2.1-0.9,5.5-3,7.8-2.8c3.2,0.3,6.5,1,9.2,2.8 c2.7,1.8,4.8,4.7,4.8,8c7-0.7,14.5-0.5,21.5-1.1c2.8-0.3,5.5-0.5,8.2-1.2c2.9-0.7,5.7-2,8.6-2.8c4.4-1.3,9.1-1.8,13.5-3.1 c3.7-1.1,7.2-2.9,10.7-4.6c4.7-2.4,9.4-4.7,14.1-7.1c4.4-2.2,8.8-4.4,13.1-7c5-3,9.7-6.5,14.8-9.6"/> <path id="XMLID_50_" fill="none" stroke="#c5bafb" stroke-width="4.8189" stroke-linecap="round" stroke-linejoin="round" stroke-miterlimit="10" d=" M253.3,192.6c-1.9-1.8-4.1-3.3-6.5-4.4c-0.5-0.2-1-0.5-1.5-0.5c-0.5,0-1,0.1-1.5,0.3c-4.1,1.8-6.5,6.6-5.9,11.1s4.1,8.2,8.3,9.8 c0.9,0.4,1.9,0.6,2.9,0.6c1.6-0.1,3.1-1,4.1-2.3c1-1.3,1.5-2.8,1.8-4.4c0.6-3.2,0.1-6.6-1.4-9.5"/> <path id="XMLID_49_" fill="none" stroke="#c5bafb" stroke-width="4.8189" stroke-linecap="round" stroke-linejoin="round" stroke-miterlimit="10" d=" M329.9,172.8c-2-1.4-4.6-1.9-7-1.4s-4.5,1.9-6,3.9c-1.4,1.9-2.1,4.5-1,6.6c0.3,0.6,0.8,1.2,1.3,1.6c2.5,2.3,6.5,3,9.6,1.5 c3.1-1.4,5.2-5,4.8-8.4c-0.2-1.8-1.3-3.7-3.1-4.1"/> <path id="XMLID_48_" fill="none" stroke="#c5bafb" stroke-width="4.8189" stroke-linecap="round" stroke-linejoin="round" stroke-miterlimit="10" d=" M273.1,229.2c0.5-6.9,2.8-13.6,6.6-19.3c-9.5-5.8-14.9-17.8-12.7-28.7c1-4.9,4-10,8.9-11c4-0.8,8.1,1.4,11.3,4 c5.7,4.5,10.3,10.4,13.4,17c1.2,2.7,2.2,5.6,1.8,8.5c-0.7,4.6-5.7,8.1-10.3,7.3c1.2,2.4,2.4,4.9,3.7,7.3"/> <path id="XMLID_47_" fill="none" stroke="#c5bafb" stroke-width="4.8189" stroke-linecap="round" stroke-linejoin="round" stroke-miterlimit="10" d=" M274.6,184.7c0.3,0.8,0.5,1.7,0.8,2.5c0.1,0.5,0.3,0.9,0.7,1.2c0.4,0.3,0.9,0.2,1.4,0.2c2.8-0.4,5.5-1.3,7.9-2.7 c1.1-0.6,2.2-1.4,3.5-1.3c0.8,0.1,1.5,0.5,2.1,1c1.4,1.1,2.6,2.5,3.4,4c0.5,0.9,0.9,1.9,0.8,3c-0.1,1-0.9,2.1-2,2.1"/> <path id="XMLID_46_" fill="none" stroke="#c5bafb" stroke-width="4.8189" stroke-linecap="round" stroke-linejoin="round" stroke-miterlimit="10" d=" M299.8,206.8c4.1,3.5,8.7,6.4,13.6,8.5"/> </g> <g id="XMLID_147_"> <path id="XMLID_154_" fill="none" stroke="#c5bafb" stroke-width="4.8189" stroke-linecap="round" stroke-linejoin="round" stroke-miterlimit="10" d=" M419,614.1c4.4,3.8,10,5.9,15.8,6.9c5.7,1,11.6,1,17.4,0.9c8.4-0.1,16.9-0.2,25.2-1.2c3.2-0.4,6.4-0.9,9.6-1.5 c6.6-1.1,13.3-2.2,19.8-4.1c2.5-0.7,5-1.6,7.4-2.5c12.9-4.8,25.2-13,35.6-22c3.2,11.7,9.7,22.4,18.6,30.7c8.9,8.3,20,14,31.9,16.5 c-19.2,20.5-44.4,34.3-70.4,44.8c-24.1,9.8-49.6,17.3-75.6,17.7c-16.2-16.5-24.7-39.2-32.5-61c-1.6-4.3-3.1-8.6-4.7-12.9 c-1.5-4.1-2.8-9.1-0.1-12.5c0.4-0.4,0.8-0.9,1.4-0.9s1.2,0.3,1.2,0.9"/> <path id="XMLID_153_" fill="none" stroke="#c5bafb" stroke-width="4.8189" stroke-linecap="round" stroke-linejoin="round" stroke-miterlimit="10" d=" M576.2,649.5c-2-1.2-2.9-3.7-2.7-6s1.3-4.4,2.7-6.3c-8.4-8.9-19.6-15.6-26.1-26.1c-3.8,0-7.5-1.2-10.7-3.2 c-11.7,17.2-81,26-100.5,20.3c0.5,4.8-3.6,9.6-8.4,9.9c1.5,15,8,29.5,17.8,41c2.1-0.9,5.5-3,7.8-2.8c3.2,0.3,6.5,1,9.2,2.8 c2.7,1.8,4.8,4.7,4.8,8c7-0.7,14.5-0.5,21.5-1.1c2.8-0.3,5.5-0.5,8.2-1.2c2.9-0.7,5.7-2,8.6-2.8c4.4-1.3,9.1-1.8,13.5-3.1 c3.7-1.1,7.2-2.9,10.7-4.6c4.7-2.4,9.4-4.7,14.1-7.1c4.4-2.2,8.8-4.4,13.1-7c5-3,9.7-6.5,14.8-9.6"/> <path id="XMLID_152_" fill="none" stroke="#c5bafb" stroke-width="4.8189" stroke-linecap="round" stroke-linejoin="round" stroke-miterlimit="10" d=" M476.3,647.6c-1.9-1.8-4.1-3.3-6.5-4.4c-0.5-0.2-1-0.5-1.5-0.5c-0.5,0-1,0.1-1.5,0.3c-4.1,1.8-6.5,6.6-5.9,11.1 c0.7,4.4,4.1,8.2,8.3,9.8c0.9,0.4,1.9,0.6,2.9,0.6c1.6-0.1,3.1-1,4.1-2.3c1-1.3,1.5-2.8,1.8-4.4c0.6-3.2,0.1-6.6-1.4-9.5"/> <path id="XMLID_151_" fill="none" stroke="#c5bafb" stroke-width="4.8189" stroke-linecap="round" stroke-linejoin="round" stroke-miterlimit="10" d=" M552.8,627.8c-2-1.4-4.6-1.9-7-1.4c-2.4,0.5-4.5,1.9-6,3.9c-1.4,1.9-2.1,4.5-1,6.6c0.3,0.6,0.8,1.2,1.3,1.6c2.5,2.3,6.5,3,9.6,1.5 s5.2-5,4.8-8.4c-0.2-1.8-1.3-3.7-3.1-4.1"/> <path id="XMLID_150_" fill="none" stroke="#c5bafb" stroke-width="4.8189" stroke-linecap="round" stroke-linejoin="round" stroke-miterlimit="10" d=" M496.1,684.1c0.5-6.9,2.8-13.6,6.6-19.3c-9.5-5.8-14.9-17.8-12.7-28.7c1-4.9,4-10,8.9-11c4-0.8,8.1,1.4,11.3,4 c5.7,4.5,10.3,10.4,13.4,17c1.2,2.7,2.2,5.6,1.8,8.5c-0.7,4.6-5.7,8.1-10.3,7.3c1.2,2.4,2.4,4.9,3.7,7.3"/> <path id="XMLID_149_" fill="none" stroke="#c5bafb" stroke-width="4.8189" stroke-linecap="round" stroke-linejoin="round" stroke-miterlimit="10" d=" M497.6,639.7c0.3,0.8,0.5,1.7,0.8,2.5c0.1,0.5,0.3,0.9,0.7,1.2c0.4,0.3,0.9,0.2,1.4,0.2c2.8-0.4,5.5-1.3,7.9-2.7 c1.1-0.6,2.2-1.4,3.5-1.3c0.8,0.1,1.5,0.5,2.1,1c1.4,1.1,2.6,2.5,3.4,4c0.5,0.9,0.9,1.9,0.8,3c-0.1,1-0.9,2.1-2,2.1"/> <path id="XMLID_148_" fill="none" stroke="#c5bafb" stroke-width="4.8189" stroke-linecap="round" stroke-linejoin="round" stroke-miterlimit="10" d=" M522.8,661.8c4.1,3.5,8.7,6.4,13.6,8.5"/> </g> <g id="XMLID_43_"> <g id="XMLID_12_"> <path id="XMLID_21_" fill="none" stroke="#c5bafb" stroke-width="4.1068" stroke-linecap="round" stroke-linejoin="round" stroke-miterlimit="10" d=" M176.2,229.5c1,4.9,3.6,9.3,6.9,13.1c3.3,3.7,7.2,6.9,11.1,9.9c5.7,4.5,11.4,8.9,17.5,12.7c2.3,1.5,4.8,2.8,7.2,4.2 c5,2.8,10,5.7,15.3,7.9c2,0.9,4.1,1.6,6.2,2.3c11.2,3.7,23.6,4.8,35.3,4.3c-3.9,9.6-5.2,20.2-3.6,30.5 c1.6,10.3,6.1,20.1,12.7,28.1c-23.5,3.4-47.5-0.8-70.4-7.7c-21.2-6.4-42.1-15-59.7-28.6c-2.2-19.8,4-39.5,10.1-58.3 c1.2-3.7,2.4-7.4,3.6-11.1c1.1-3.5,2.8-7.6,6.4-8.4c0.5-0.1,1-0.1,1.4,0.1c0.4,0.2,0.6,0.9,0.3,1.2"/> <path id="XMLID_26_" fill="none" stroke="#c5bafb" stroke-width="4.1068" stroke-linecap="round" stroke-linejoin="round" stroke-miterlimit="10" d=" M233.9,333.6c4.1,0.9,8.2,1.8,12.4,2.3c4.9,0.7,9.9,0.9,14.8,1.5"/> <path id="XMLID_27_" fill="none" stroke="#c5bafb" stroke-width="4.1068" stroke-linecap="round" stroke-linejoin="round" stroke-miterlimit="10" d=" M215.9,275.7c-15.1-8.7-29-19.2-33.7-26c-2.2,3.5-7.4,4.5-10.8,2.1c-6.8,10.9-10,24.1-9.5,37c1.9,0.6,5.2,0.9,6.6,2.3 c2,1.9,3.8,4.2,4.7,6.8c0.9,2.6,0.7,5.8-1,7.9c5,3.3,9.9,7.5,15,10.8c2,1.3,4,2.6,6.1,3.6c2.3,1.1,4.8,1.7,7.2,2.7 c1.5,0.6,3,1.4,4.5,2.2"/> <path id="XMLID_25_" fill="none" stroke="#c5bafb" stroke-width="4.1068" stroke-linecap="round" stroke-linejoin="round" stroke-miterlimit="10" d=" M262.7,337.5c-0.7-1.9,0-4,1.3-5.4s3.2-2.2,5-2.8c-1-10.5-5-21-3.8-31.4c-2.5-2-4.4-4.8-5.4-7.9c-5.1,1.6-13.4-0.2-22.8-3.9"/> <path id="XMLID_19_" fill="none" stroke="#c5bafb" stroke-width="4.1068" stroke-linecap="round" stroke-linejoin="round" stroke-miterlimit="10" d=" M197,282.6c-0.3-2.2-1-4.4-2-6.5c-0.2-0.4-0.4-0.8-0.8-1.1c-0.3-0.3-0.7-0.4-1.2-0.6c-3.7-1-7.8,0.9-9.7,4.3s-1.5,7.7,0.4,11 c0.4,0.7,1,1.4,1.7,1.9c1.1,0.8,2.6,1,3.9,0.7c1.3-0.3,2.5-1.1,3.5-2c2-1.8,3.5-4.4,4-7.1"/> <path id="XMLID_18_" fill="none" stroke="#c5bafb" stroke-width="4.1068" stroke-linecap="round" stroke-linejoin="round" stroke-miterlimit="10" d=" M258.4,310.4c-0.6-2-2.1-3.7-3.9-4.7c-1.8-0.9-4-1.1-6-0.6c-1.9,0.5-3.8,1.9-4.1,3.9c-0.1,0.6-0.1,1.2,0,1.8 c0.5,2.9,2.8,5.5,5.6,6.2c2.8,0.7,6-0.6,7.5-3.1c0.8-1.3,1.1-3.2,0.1-4.4"/> <path id="XMLID_16_" fill="none" stroke="#c5bafb" stroke-width="4.1068" stroke-linecap="round" stroke-linejoin="round" stroke-miterlimit="10" d=" M191.2,317.7c3.9-4.3,8.9-7.6,14.5-9.4c-3.4-9-0.6-19.9,6.5-26c1.1-1,2.4-1.8,3.8-2.4"/> </g> <path id="XMLID_11_" fill="none" stroke="#c5bafb" stroke-width="4.1068" stroke-linecap="round" stroke-linejoin="round" stroke-miterlimit="10" d=" M152.6,307c-6.1,4.4-13.4,6.7-20.5,9c-3.2,1-6.3,2-9.5,3"/> <path id="XMLID_22_" fill="none" stroke="#c5bafb" stroke-width="4.1068" stroke-linecap="round" stroke-linejoin="round" stroke-miterlimit="10" d=" M170.3,229.2c-5.6,2.1-11.1,4.3-16.7,6.4c-1.3,0.5-2.7,1.1-3.7,2.1c-7.6,8.4-8.3,20.8-13.8,30.7c-2.4,4.3-5,8.5-6.9,13 c-1.1,2.7-2,5.4-3.2,8.1c-1.2,2.8-2.6,5.4-3.8,8.2c-3,6.9-4.3,14.6-3.8,22.1c50.2,40.1,130.5,39.6,132.3,39c3.3-1.2,6.3-3,9.5-4.6 c8-4,16.3-7,24.7-10"/> <path id="XMLID_23_" fill="none" stroke="#c5bafb" stroke-width="4.1068" stroke-linecap="round" stroke-linejoin="round" stroke-miterlimit="10" d=" M216.1,266.6c0.1,4.5-0.1,8.9-0.5,13.3c-1.6,15.6-6.4,31-10.7,46.2c-0.4,1.5-0.8,3-1.6,4.3c-1.1,1.9-3,3.2-4.8,4.5 c-6.1,4.4-12.1,8.8-18.2,13.2c-0.2,0.1-0.4,0.2-0.5,0.1c-0.2-0.1,0-0.4,0.2-0.3"/> <path id="XMLID_24_" fill="none" stroke="#c5bafb" stroke-width="4.1068" stroke-linecap="round" stroke-linejoin="round" stroke-miterlimit="10" d=" M237.4,277.2c-0.8,19.2-1.7,38.3-3.4,57.4c-0.1,1.4-0.3,2.8-0.8,4.1c-1.3,3.4-4.8,5.3-7.9,7.2c-5.1,3.1-10,6.7-14.4,10.7"/> <path id="XMLID_13_" fill="none" stroke="#c5bafb" stroke-width="4.1068" stroke-linecap="round" stroke-linejoin="round" stroke-miterlimit="10" d=" M138,315c7.9,7.6,18.1,12.9,28.9,15"/> <path id="XMLID_15_" fill="none" stroke="#c5bafb" stroke-width="4.1068" stroke-linecap="round" stroke-linejoin="round" stroke-miterlimit="10" d=" M137,311.9c-1.7-5.2,0.6-28,5.2-37.7"/> <path id="XMLID_20_" fill="none" stroke="#c5bafb" stroke-width="4.1068" stroke-linecap="round" stroke-linejoin="round" stroke-miterlimit="10" d=" M162.5,234.1c-7.6,16.5-16.4,35.2-16.7,53.4"/> <path id="XMLID_41_" fill="none" stroke="#c5bafb" stroke-width="4.1068" stroke-linecap="round" stroke-linejoin="round" stroke-miterlimit="10" d=" M263.5,351.5c-9.1,1.1-18.4,0.7-27.4-1.2"/> <path id="XMLID_42_" fill="none" stroke="#c5bafb" stroke-width="4.1068" stroke-linecap="round" stroke-linejoin="round" stroke-miterlimit="10" d=" M186.1,340.1c-4.6-0.7-9-2.4-12.9-4.8c0.3,0.4,0.6,0.8,0.9,1.2"/> </g> <g id="XMLID_79_"> <g id="XMLID_89_"> <path id="XMLID_96_" fill="none" stroke="#c5bafb" stroke-width="4.1068" stroke-linecap="round" stroke-linejoin="round" stroke-miterlimit="10" d=" M427,588.9c-0.4-5-2.6-9.7-5.5-13.7s-6.5-7.6-10-11c-5.2-5-10.4-10-16.1-14.4c-2.2-1.7-4.4-3.3-6.7-4.9c-4.7-3.3-9.4-6.7-14.4-9.4 c-1.9-1.1-3.9-2-6-3c-10.7-4.8-23-7.2-34.6-8c4.9-9.1,7.3-19.6,6.8-30c-0.5-10.4-3.9-20.7-9.7-29.3c23.7-1,47.2,5.7,69.2,15 c20.4,8.6,40.3,19.3,56.4,34.7c0.1,19.9-8.1,38.9-16.1,56.9c-1.6,3.6-3.2,7.1-4.7,10.7c-1.5,3.4-3.6,7.3-7.2,7.7 c-0.5,0.1-1,0-1.4-0.2c-0.4-0.3-0.5-0.9-0.2-1.3"/> <path id="XMLID_95_" fill="none" stroke="#c5bafb" stroke-width="4.1068" stroke-linecap="round" stroke-linejoin="round" stroke-miterlimit="10" d=" M380.4,479.4c-4-1.3-8-2.6-12.1-3.6c-4.8-1.2-9.8-1.9-14.6-3"/> <path id="XMLID_94_" fill="none" stroke="#c5bafb" stroke-width="4.1068" stroke-linecap="round" stroke-linejoin="round" stroke-miterlimit="10" d=" M392.4,538.9c14.1,10.2,26.8,22.1,30.8,29.3c2.5-3.3,7.8-3.7,10.9-1c7.9-10.1,12.5-22.9,13.3-35.8c-1.8-0.8-5.1-1.5-6.4-3 c-1.8-2.1-3.4-4.5-4-7.3s-0.1-5.8,1.8-7.8c-4.7-3.8-9.1-8.5-13.8-12.3c-1.8-1.5-3.7-3-5.7-4.2c-2.2-1.3-4.6-2.2-6.9-3.4 c-1.5-0.8-2.9-1.7-4.3-2.6"/> <path id="XMLID_93_" fill="none" stroke="#c5bafb" stroke-width="4.1068" stroke-linecap="round" stroke-linejoin="round" stroke-miterlimit="10" d=" M352.2,472.5c0.5,1.9-0.4,4-1.9,5.3c-1.5,1.3-3.4,1.9-5.3,2.2c-0.1,10.6,2.8,21.4,0.5,31.7c2.3,2.3,3.8,5.2,4.6,8.4 c5.3-1.1,13.3,1.6,22.3,6.3"/> <path id="XMLID_92_" fill="none" stroke="#c5bafb" stroke-width="4.1068" stroke-linecap="round" stroke-linejoin="round" stroke-miterlimit="10" d=" M411.9,533.9c0.1,2.3,0.6,4.5,1.3,6.6c0.2,0.4,0.3,0.9,0.6,1.2c0.3,0.3,0.7,0.5,1.1,0.7c3.6,1.4,7.9-0.1,10.1-3.3 c2.2-3.1,2.3-7.5,0.7-11c-0.4-0.8-0.8-1.5-1.4-2.1c-1-0.9-2.5-1.2-3.8-1.1c-1.4,0.2-2.6,0.8-3.7,1.6c-2.2,1.6-3.9,4-4.7,6.6"/> <path id="XMLID_91_" fill="none" stroke="#c5bafb" stroke-width="4.1068" stroke-linecap="round" stroke-linejoin="round" stroke-miterlimit="10" d=" M353.7,499.9c0.4,2.1,1.7,3.9,3.4,5c1.7,1.1,3.9,1.6,5.9,1.2c2-0.3,4-1.5,4.5-3.4c0.2-0.6,0.2-1.2,0.2-1.8 c-0.2-2.9-2.2-5.7-4.9-6.7c-2.7-1-6.1-0.1-7.8,2.3c-0.9,1.2-1.4,3-0.5,4.3"/> <path id="XMLID_90_" fill="none" stroke="#c5bafb" stroke-width="4.1068" stroke-linecap="round" stroke-linejoin="round" stroke-miterlimit="10" d=" M421.3,499.6c-4.3,3.9-9.7,6.6-15.3,7.8c2.4,9.3-1.4,19.8-9.2,25.2c-1.2,0.8-2.6,1.5-4,2"/> </g> <path id="XMLID_88_" fill="none" stroke="#c5bafb" stroke-width="4.1068" stroke-linecap="round" stroke-linejoin="round" stroke-miterlimit="10" d=" M458.6,514.3c6.5-3.7,14-5.3,21.4-6.8c3.2-0.7,6.5-1.4,9.7-2"/> <path id="XMLID_87_" fill="none" stroke="#c5bafb" stroke-width="4.1068" stroke-linecap="round" stroke-linejoin="round" stroke-miterlimit="10" d=" M432.9,589.8c5.7-1.5,11.5-3.1,17.2-4.6c1.4-0.4,2.8-0.8,3.9-1.7c8.5-7.5,10.4-19.9,16.9-29.1c2.8-4,5.8-7.9,8.2-12.2 c1.4-2.5,2.6-5.2,4-7.7c1.5-2.6,3.2-5.1,4.7-7.7c3.7-6.6,5.8-14,6.1-21.6c-45.7-45.1-125.7-53-127.5-52.5c-3.4,0.9-6.6,2.3-9.9,3.5 c-8.3,3.1-17,5.3-25.6,7.4"/> <path id="XMLID_86_" fill="none" stroke="#c5bafb" stroke-width="4.1068" stroke-linecap="round" stroke-linejoin="round" stroke-miterlimit="10" d=" M391.2,547.9c0.3-4.4,1-8.8,1.9-13.2c3.2-15.4,9.6-30.1,15.4-44.8c0.6-1.4,1.1-2.9,2.1-4.1c1.3-1.7,3.3-2.9,5.2-4 c6.5-3.7,13-7.5,19.5-11.2c0.2-0.1,0.4-0.2,0.5-0.1c0.2,0.1-0.1,0.4-0.2,0.3"/> <path id="XMLID_85_" fill="none" stroke="#c5bafb" stroke-width="4.1068" stroke-linecap="round" stroke-linejoin="round" stroke-miterlimit="10" d=" M371.1,535.2c2.8-19,5.7-37.9,9.4-56.8c0.3-1.4,0.5-2.8,1.2-4c1.7-3.2,5.3-4.8,8.6-6.3c5.4-2.5,10.6-5.6,15.4-9.2"/> <path id="XMLID_84_" fill="none" stroke="#c5bafb" stroke-width="4.1068" stroke-linecap="round" stroke-linejoin="round" stroke-miterlimit="10" d=" M473.8,507.9c-7.1-8.4-16.7-14.7-27.2-17.9"/> <path id="XMLID_83_" fill="none" stroke="#c5bafb" stroke-width="4.1068" stroke-linecap="round" stroke-linejoin="round" stroke-miterlimit="10" d=" M474.6,511c1.1,5.4-3.5,27.8-9.1,37"/> <path id="XMLID_82_" fill="none" stroke="#c5bafb" stroke-width="4.1068" stroke-linecap="round" stroke-linejoin="round" stroke-miterlimit="10" d=" M441.1,585.8c9.3-15.6,20-33.3,22.2-51.4"/> <path id="XMLID_81_" fill="none" stroke="#c5bafb" stroke-width="4.1068" stroke-linecap="round" stroke-linejoin="round" stroke-miterlimit="10" d=" M352.8,458.5c9.2-0.1,18.4,1.3,27.1,4.1"/> <path id="XMLID_80_" fill="none" stroke="#c5bafb" stroke-width="4.1068" stroke-linecap="round" stroke-linejoin="round" stroke-miterlimit="10" d=" M428.7,477.9c4.5,1.2,8.7,3.3,12.3,6.1c-0.3-0.4-0.5-0.8-0.8-1.3"/> </g> <g id="XMLID_53_"> <g id="XMLID_63_"> <path id="XMLID_70_" fill="none" stroke="#c5bafb" stroke-width="4.1068" stroke-linecap="round" stroke-linejoin="round" stroke-miterlimit="10" d=" M472.9,147c-2.5-4.3-6.5-7.6-10.9-10c-4.4-2.4-9.1-4-13.8-5.6c-6.8-2.3-13.7-4.6-20.7-6.1c-2.7-0.6-5.4-1.1-8.1-1.5 c-5.7-1-11.4-2-17.1-2.3c-2.2-0.1-4.4-0.2-6.7-0.1c-11.7,0.3-23.8,3.4-34.7,7.7c0.5-10.3-1.9-20.8-6.8-30s-12.4-17-21.4-22.3 c21-11.1,45.1-15.1,68.9-16.3c22.1-1.1,44.7,0,65.8,7c8.7,17.9,9.5,38.5,10,58.3c0.1,3.9,0.2,7.8,0.3,11.7 c0.1,3.7-0.1,8.1-3.2,10.1c-0.4,0.3-0.9,0.5-1.4,0.4c-0.5-0.1-0.9-0.6-0.7-1.1"/> <path id="XMLID_69_" fill="none" stroke="#c5bafb" stroke-width="4.1068" stroke-linecap="round" stroke-linejoin="round" stroke-miterlimit="10" d=" M383.7,68.2c-4.2,0.5-8.3,1.1-12.4,2c-4.9,1-9.6,2.5-14.5,3.5"/> <path id="XMLID_68_" fill="none" stroke="#c5bafb" stroke-width="4.1068" stroke-linecap="round" stroke-linejoin="round" stroke-miterlimit="10" d=" M420.1,116.7c17.1,3.1,33.7,8.4,40.4,13.2c0.9-4,5.4-6.7,9.4-5.6c2.8-12.5,1.4-26-3.5-38c-2,0.1-5.2,0.9-7,0 c-2.5-1.2-5-2.7-6.7-4.8c-1.7-2.2-2.6-5.2-1.7-7.8c-5.9-1.4-11.9-3.7-17.7-5.2c-2.3-0.6-4.6-1.1-7-1.3c-2.5-0.2-5.1,0-7.7-0.1 c-1.7-0.1-3.3-0.3-5-0.5"/> <path id="XMLID_67_" fill="none" stroke="#c5bafb" stroke-width="4.1068" stroke-linecap="round" stroke-linejoin="round" stroke-miterlimit="10" d=" M355.3,74.2c1.3,1.5,1.3,3.8,0.6,5.6c-0.8,1.8-2.2,3.2-3.8,4.3c4.4,9.6,11.7,18.1,14.1,28.3c3.1,1.1,5.7,3.1,7.8,5.6 c4.3-3.2,12.7-4.3,22.8-3.9"/> <path id="XMLID_66_" fill="none" stroke="#c5bafb" stroke-width="4.1068" stroke-linecap="round" stroke-linejoin="round" stroke-miterlimit="10" d=" M435.6,103.9c1.1,2,2.5,3.8,4.1,5.4c0.3,0.3,0.7,0.6,1.1,0.8c0.4,0.2,0.9,0.2,1.3,0.1c3.8-0.2,7.1-3.5,7.7-7.3s-1.1-7.8-4.1-10.3 c-0.7-0.5-1.4-1-2.2-1.3c-1.3-0.4-2.8-0.1-3.9,0.7c-1.1,0.7-2,1.9-2.7,3.1c-1.3,2.4-1.8,5.3-1.4,8"/> <path id="XMLID_65_" fill="none" stroke="#c5bafb" stroke-width="4.1068" stroke-linecap="round" stroke-linejoin="round" stroke-miterlimit="10" d=" M368.4,98.3c1.2,1.7,3.2,2.8,5.2,3.1c2.1,0.3,4.2-0.3,5.9-1.4c1.6-1.1,2.9-3.1,2.6-5.1c-0.1-0.6-0.3-1.2-0.6-1.7 c-1.4-2.6-4.5-4.2-7.4-3.9s-5.5,2.6-6.1,5.4c-0.3,1.5,0.1,3.3,1.4,4.1"/> <path id="XMLID_64_" fill="none" stroke="#c5bafb" stroke-width="4.1068" stroke-linecap="round" stroke-linejoin="round" stroke-miterlimit="10" d=" M429.3,68.9c-2.2,5.4-5.9,10.2-10.5,13.7c6.2,7.3,7.3,18.5,2.6,26.7c-0.7,1.3-1.7,2.5-2.7,3.5"/> </g> <path id="XMLID_62_" fill="none" stroke="#c5bafb" stroke-width="4.1068" stroke-linecap="round" stroke-linejoin="round" stroke-miterlimit="10" d=" M469.2,66c4.3-6.2,10.4-10.8,16.3-15.4c2.6-2,5.3-4,7.9-6"/> <path id="XMLID_61_" fill="none" stroke="#c5bafb" stroke-width="4.1068" stroke-linecap="round" stroke-linejoin="round" stroke-miterlimit="10" d=" M478.6,145.3c4.5-3.9,9-7.7,13.6-11.6c1.1-0.9,2.2-1.9,2.8-3.3c4.4-10.4,0.9-22.4,2.8-33.6c0.8-4.9,1.9-9.7,2.2-14.6 c0.2-2.9,0.1-5.8,0.3-8.7c0.2-3,0.7-6,0.9-9c0.5-7.5-0.8-15.2-3.8-22.1c-60.7-21-136.2,6.3-137.7,7.5c-2.7,2.2-5,4.9-7.4,7.5 c-6.2,6.4-13.1,12.1-19.9,17.7"/> <path id="XMLID_60_" fill="none" stroke="#c5bafb" stroke-width="4.1068" stroke-linecap="round" stroke-linejoin="round" stroke-miterlimit="10" d=" M422.9,125.4c-1.6-4.2-2.9-8.4-4-12.7c-3.7-15.3-4.3-31.3-5.4-47.1c-0.1-1.5-0.2-3.1,0.1-4.6c0.5-2.2,1.7-4,3-5.8 c4.2-6.2,8.5-12.3,12.7-18.5c0.1-0.2,0.3-0.3,0.5-0.3s0.1,0.4-0.1,0.3"/> <path id="XMLID_59_" fill="none" stroke="#c5bafb" stroke-width="4.1068" stroke-linecap="round" stroke-linejoin="round" stroke-miterlimit="10" d=" M399.3,122.5c-5.7-18.3-11.2-36.7-16-55.3c-0.3-1.3-0.7-2.7-0.7-4.1c0.1-3.6,2.7-6.6,5.1-9.4c3.8-4.6,7.2-9.6,9.9-14.9"/> <path id="XMLID_58_" fill="none" stroke="#c5bafb" stroke-width="4.1068" stroke-linecap="round" stroke-linejoin="round" stroke-miterlimit="10" d=" M480.3,53.7c-10-4.5-21.4-6.1-32.2-4.5"/> <path id="XMLID_57_" fill="none" stroke="#c5bafb" stroke-width="4.1068" stroke-linecap="round" stroke-linejoin="round" stroke-miterlimit="10" d=" M482.3,56.2c3.3,4.4,8.8,26.5,7.7,37.3"/> <path id="XMLID_56_" fill="none" stroke="#c5bafb" stroke-width="4.1068" stroke-linecap="round" stroke-linejoin="round" stroke-miterlimit="10" d=" M484.3,138.1c1.6-18.1,3.7-38.7-2.1-55.9"/> <path id="XMLID_55_" fill="none" stroke="#c5bafb" stroke-width="4.1068" stroke-linecap="round" stroke-linejoin="round" stroke-miterlimit="10" d=" M349.8,61.2c8.2-4.1,17.1-6.8,26.2-8"/> <path id="XMLID_54_" fill="none" stroke="#c5bafb" stroke-width="4.1068" stroke-linecap="round" stroke-linejoin="round" stroke-miterlimit="10" d=" M426.6,46c4.5-0.9,9.3-0.8,13.8,0.2c-0.4-0.3-0.8-0.5-1.3-0.8"/> </g> <g id="XMLID_113_"> <g id="XMLID_123_"> <path id="XMLID_130_" fill="none" stroke="#c5bafb" stroke-width="4.1068" stroke-linecap="round" stroke-linejoin="round" stroke-miterlimit="10" d=" M163.9,534.7c3.1-3.9,4.8-8.8,5.5-13.8c0.7-4.9,0.5-9.9,0.3-14.9c-0.3-7.2-0.6-14.4-1.7-21.5c-0.4-2.7-1-5.4-1.5-8.1 c-1.1-5.6-2.2-11.3-4-16.8c-0.7-2.1-1.4-4.2-2.3-6.2c-4.4-10.9-11.7-21-19.6-29.6c9.8-3.2,18.8-9.2,25.6-17.1 c6.8-7.9,11.4-17.7,13.1-27.9c17.9,15.6,30.3,36.6,39.9,58.5c8.9,20.3,16,41.7,17,64c-13.6,14.5-32.6,22.6-50.8,30.2 c-3.6,1.5-7.2,3-10.8,4.5c-3.4,1.4-7.6,2.8-10.6,0.6c-0.4-0.3-0.7-0.7-0.8-1.1c-0.1-0.5,0.2-1,0.7-1.1"/> <path id="XMLID_129_" fill="none" stroke="#c5bafb" stroke-width="4.1068" stroke-linecap="round" stroke-linejoin="round" stroke-miterlimit="10" d=" M205.6,423.2c-2-3.7-4-7.4-6.3-10.9c-2.7-4.2-5.8-8.1-8.5-12.3"/> <path id="XMLID_128_" fill="none" stroke="#c5bafb" stroke-width="4.1068" stroke-linecap="round" stroke-linejoin="round" stroke-miterlimit="10" d=" M173.3,474.5c3.2,17.1,4.2,34.5,2.2,42.5c4.1-0.6,8.2,2.7,8.6,6.8c12.7-1.9,24.8-8,34.3-16.9c-0.8-1.8-2.7-4.6-2.6-6.6 c0.2-2.8,0.7-5.6,2.1-8c1.4-2.4,3.9-4.3,6.6-4.4c-0.8-6-0.8-12.4-1.5-18.4c-0.3-2.3-0.6-4.7-1.2-7c-0.7-2.5-1.8-4.8-2.6-7.2 c-0.5-1.6-0.9-3.2-1.3-4.8"/> <path id="XMLID_127_" fill="none" stroke="#c5bafb" stroke-width="4.1068" stroke-linecap="round" stroke-linejoin="round" stroke-miterlimit="10" d=" M189.8,398.8c-1,1.7-3,2.6-5,2.5c-1.9-0.1-3.8-1-5.4-2c-7.4,7.6-12.7,17.4-21.4,23.3c0.1,3.2-0.8,6.4-2.5,9.3 c4.5,2.9,8.6,10.4,11.8,19.9"/> <path id="XMLID_126_" fill="none" stroke="#c5bafb" stroke-width="4.1068" stroke-linecap="round" stroke-linejoin="round" stroke-miterlimit="10" d=" M190.8,484.4c-1.5,1.7-2.7,3.7-3.6,5.7c-0.2,0.4-0.4,0.9-0.4,1.3c0,0.4,0.1,0.9,0.3,1.2c1.6,3.5,5.8,5.3,9.6,4.6 c3.8-0.8,6.9-3.8,8.1-7.5c0.3-0.8,0.5-1.7,0.4-2.5c-0.1-1.4-0.9-2.6-2-3.4s-2.4-1.2-3.8-1.4c-2.7-0.4-5.6,0.2-8,1.6"/> <path id="XMLID_125_" fill="none" stroke="#c5bafb" stroke-width="4.1068" stroke-linecap="round" stroke-linejoin="round" stroke-miterlimit="10" d=" M172,419.6c-1.1,1.8-1.5,4-1,6c0.5,2,1.8,3.8,3.4,5c1.6,1.1,3.9,1.6,5.6,0.6c0.5-0.3,1-0.7,1.4-1.2c1.9-2.3,2.3-5.7,1-8.3 s-4.4-4.2-7.2-3.7c-1.5,0.3-3.1,1.2-3.4,2.8"/> <path id="XMLID_124_" fill="none" stroke="#c5bafb" stroke-width="4.1068" stroke-linecap="round" stroke-linejoin="round" stroke-miterlimit="10" d=" M221.3,466c-5.8-0.1-11.6-1.8-16.5-4.9c-4.6,8.4-14.7,13.4-24,12c-1.4-0.2-2.9-0.6-4.3-1.3"/> </g> <path id="XMLID_122_" fill="none" stroke="#c5bafb" stroke-width="4.1068" stroke-linecap="round" stroke-linejoin="round" stroke-miterlimit="10" d=" M238.2,502.2c7.3,1.8,13.8,5.8,20.2,9.8c2.8,1.7,5.6,3.5,8.5,5.2"/> <path id="XMLID_121_" fill="none" stroke="#c5bafb" stroke-width="4.1068" stroke-linecap="round" stroke-linejoin="round" stroke-miterlimit="10" d=" M167.6,539.4c5.2,2.8,10.5,5.7,15.7,8.5c1.3,0.7,2.6,1.4,4,1.4c11.3,0.4,21.3-7.2,32.3-9.5c4.8-1,9.7-1.7,14.4-3.2 c2.8-0.9,5.4-2,8.2-2.8c2.9-0.9,5.8-1.5,8.7-2.4c7.2-2.2,13.9-6.2,19.3-11.4c-2.1-64.2-54.7-124.9-56.3-125.9 c-3.1-1.7-6.4-2.9-9.6-4.2c-8.2-3.5-15.9-7.9-23.7-12.3"/> <path id="XMLID_120_" fill="none" stroke="#c5bafb" stroke-width="4.1068" stroke-linecap="round" stroke-linejoin="round" stroke-miterlimit="10" d=" M166.2,480.3c3.3-3,6.8-5.7,10.4-8.2c12.9-8.9,27.7-15.3,42-21.9c1.4-0.7,2.8-1.3,4.4-1.6c2.2-0.3,4.4,0.2,6.5,0.7 c7.3,1.8,14.5,3.5,21.8,5.3c0.2,0,0.4,0.1,0.4,0.3s-0.4,0.2-0.3,0.1"/> <path id="XMLID_119_" fill="none" stroke="#c5bafb" stroke-width="4.1068" stroke-linecap="round" stroke-linejoin="round" stroke-miterlimit="10" d=" M160.4,457.2c15.1-11.9,30.3-23.6,45.9-34.7c1.1-0.8,2.3-1.6,3.6-2.1c3.4-1.2,7.1,0.2,10.6,1.4c5.7,1.9,11.5,3.2,17.5,3.9"/> <path id="XMLID_118_" fill="none" stroke="#c5bafb" stroke-width="4.1068" stroke-linecap="round" stroke-linejoin="round" stroke-miterlimit="10" d=" M253.7,508.1c0.6-11-2-22.1-7.4-31.7"/> <path id="XMLID_117_" fill="none" stroke="#c5bafb" stroke-width="4.1068" stroke-linecap="round" stroke-linejoin="round" stroke-miterlimit="10" d=" M252.1,510.9c-2.9,4.7-21.6,17.7-32.1,20.6"/> <path id="XMLID_116_" fill="none" stroke="#c5bafb" stroke-width="4.1068" stroke-linecap="round" stroke-linejoin="round" stroke-miterlimit="10" d=" M176.3,542.1c17.5-5,37.4-10.4,51.5-22"/> <path id="XMLID_115_" fill="none" stroke="#c5bafb" stroke-width="4.1068" stroke-linecap="round" stroke-linejoin="round" stroke-miterlimit="10" d=" M199.9,389c6.7,6.2,12.5,13.6,16.9,21.6"/> <path id="XMLID_114_" fill="none" stroke="#c5bafb" stroke-width="4.1068" stroke-linecap="round" stroke-linejoin="round" stroke-miterlimit="10" d=" M241.6,455.3c2.4,3.9,4.1,8.4,4.7,12.9c0.1-0.5,0.2-1,0.3-1.5"/> </g> </svg>